<svg width="62" height="63" viewBox="0 0 62 63" fill="none" xmlns="http://www.w3.org/2000/svg">
<g id="Layer_1" clip-path="url(#clip0_116_3555)">
<g id="Group">
<g id="Group_2">
<g id="Group_3">
<g id="Group_4">
<g id="Group_5">
<path id="Vector" d="M26.745 21.0045C27.2571 21.0045 27.6723 20.5298 27.6723 19.9443C27.6723 19.3587 27.2571 18.884 26.745 18.884C26.2328 18.884 25.8176 19.3587 25.8176 19.9443C25.8176 20.5298 26.2328 21.0045 26.745 21.0045Z" fill="white"/>
<path id="Vector_2" d="M35.2237 21.0045C35.7359 21.0045 36.1511 20.5298 36.1511 19.9443C36.1511 19.3587 35.7359 18.884 35.2237 18.884C34.7116 18.884 34.2964 19.3587 34.2964 19.9443C34.2964 20.5298 34.7116 21.0045 35.2237 21.0045Z" fill="white"/>
<path id="Vector_3" d="M30.9845 25.6291C30.2499 25.6291 29.5151 25.386 28.9022 24.8997C28.6155 24.6724 28.5675 24.2557 28.7949 23.9692C29.0222 23.6826 29.4387 23.6345 29.7254 23.8619C30.4666 24.4498 31.5021 24.4498 32.2433 23.8619C32.5298 23.6343 32.9466 23.6825 33.1738 23.9692C33.4011 24.2558 33.3532 24.6725 33.0665 24.8997C32.4538 25.3859 31.7192 25.6291 30.9845 25.6291Z" fill="white"/>
</g>
</g>
</g>
<g id="XMLID_12_">
<path id="Vector_4" d="M39.1474 57.729H22.8526C22.4868 57.729 22.1902 57.4323 22.1902 57.0666C22.1902 56.7008 22.4868 56.4042 22.8526 56.4042H39.1474C39.5132 56.4042 39.8098 56.7008 39.8098 57.0666C39.8098 57.4323 39.5132 57.729 39.1474 57.729Z" fill="white"/>
<g id="Group_6">
<path id="Vector_5" d="M47.1199 59.4093C47.1198 59.4093 47.1198 59.4093 47.1199 59.4093C46.8611 59.668 46.4417 59.6679 46.1831 59.4091L45.617 58.8428C45.3584 58.5841 45.3585 58.1648 45.6171 57.9062C45.6171 57.9062 45.6171 57.9062 45.6172 57.906C45.876 57.6474 46.2954 57.6476 46.554 57.9062L47.1201 58.4725C47.3785 58.7312 47.3785 59.1505 47.1199 59.4093Z" fill="white"/>
<path id="Vector_6" d="M43.9389 56.227C43.9388 56.227 43.9388 56.227 43.9389 56.227C43.68 56.4857 43.2606 56.4856 43.002 56.2269L42.4361 55.6607C42.1775 55.4019 42.1776 54.9826 42.4362 54.724C42.4362 54.724 42.4362 54.724 42.4363 54.7239C42.6951 54.4653 43.1145 54.4654 43.3731 54.724L43.939 55.2903C44.1976 55.549 44.1975 55.9683 43.9389 56.227Z" fill="white"/>
<path id="Vector_7" d="M43.3727 59.4093C43.1141 59.6679 42.6947 59.668 42.4361 59.4094C42.1773 59.1508 42.1772 58.7314 42.4359 58.4727L43.002 57.9063L43.0021 57.9062C43.2607 57.6476 43.6802 57.6474 43.9388 57.906C44.1975 58.1646 44.1976 58.5841 43.9389 58.8428L43.3727 59.4093C43.3728 59.4091 43.3728 59.4091 43.3727 59.4093Z" fill="white"/>
<path id="Vector_8" d="M46.5538 56.227C46.2952 56.4856 45.8758 56.4857 45.6172 56.2271C45.3585 55.9685 45.3583 55.5491 45.6171 55.2904L46.1832 54.7242L46.1833 54.724C46.4419 54.4654 46.8613 54.4653 47.1199 54.7239C47.3786 54.9825 47.3788 55.4019 47.12 55.6607L46.5538 56.227Z" fill="white"/>
</g>
<g id="Group_7">
<path id="Vector_9" d="M19.5643 59.4093C19.5642 59.4093 19.5642 59.4093 19.5643 59.4093C19.3054 59.668 18.886 59.6679 18.6274 59.4091L18.0613 58.8428C17.8027 58.5841 17.8028 58.1648 18.0614 57.9062C18.0614 57.9062 18.0614 57.9062 18.0616 57.906C18.3203 57.6474 18.7397 57.6476 18.9983 57.9062L19.5644 58.4725C19.8229 58.7312 19.8229 59.1505 19.5643 59.4093Z" fill="white"/>
<path id="Vector_10" d="M16.3832 56.227C16.3831 56.227 16.3831 56.227 16.3832 56.227C16.1244 56.4857 15.705 56.4856 15.4464 56.2269L14.8804 55.6607C14.6218 55.4019 14.6219 54.9826 14.8805 54.724C14.8805 54.724 14.8805 54.724 14.8807 54.7239C15.1394 54.4653 15.5588 54.4654 15.8174 54.724L16.3834 55.2903C16.642 55.549 16.6418 55.9683 16.3832 56.227Z" fill="white"/>
<path id="Vector_11" d="M15.817 59.4093C15.5584 59.6679 15.139 59.668 14.8804 59.4094C14.6217 59.1508 14.6215 58.7314 14.8803 58.4727L15.4463 57.9063L15.4465 57.9062C15.7051 57.6476 16.1245 57.6474 16.3831 57.906C16.6418 58.1646 16.642 58.5841 16.3832 58.8428L15.817 59.4093C15.8171 59.4091 15.8171 59.4091 15.817 59.4093Z" fill="white"/>
<path id="Vector_12" d="M18.9982 56.227C18.7396 56.4856 18.3201 56.4857 18.0615 56.2271C17.8028 55.9685 17.8027 55.5491 18.0614 55.2904L18.6275 54.7242L18.6276 54.724C18.8862 54.4654 19.3057 54.4653 19.5642 54.7239C19.823 54.9825 19.8231 55.4019 19.5644 55.6607L18.9982 56.227Z" fill="white"/>
</g>
</g>
<path id="Vector_13" d="M45.557 49.4801C45.9594 49.4801 46.2856 49.1539 46.2856 48.7515C46.2856 48.349 45.9594 48.0228 45.557 48.0228C45.1546 48.0228 44.8284 48.349 44.8284 48.7515C44.8284 49.1539 45.1546 49.4801 45.557 49.4801Z" fill="white"/>
<path id="Vector_14" d="M16.4117 49.4801C16.8142 49.4801 17.1404 49.1539 17.1404 48.7515C17.1404 48.349 16.8142 48.0228 16.4117 48.0228C16.0093 48.0228 15.6831 48.349 15.6831 48.7515C15.6831 49.1539 16.0093 49.4801 16.4117 49.4801Z" fill="white"/>
<path id="Vector_15" d="M39.3304 42.8959V37.4616C39.3304 37.0958 39.0338 36.7992 38.668 36.7992C38.3023 36.7992 38.0056 37.0958 38.0056 37.4616V42.8817H23.9629V37.4616C23.9629 37.0958 23.6663 36.7992 23.3005 36.7992C22.9347 36.7992 22.6381 37.0958 22.6381 37.4616V42.8817C21.3963 42.8817 20.386 43.892 20.386 45.1338V48.9973C20.386 49.3432 20.6389 49.6521 20.9833 49.685C21.3784 49.7226 21.7108 49.413 21.7108 49.0256V45.1337C21.7108 44.6215 22.126 44.2063 22.6381 44.2063H39.0655C39.724 44.2063 40.2578 44.7401 40.2578 45.3986V48.9676C40.2578 49.3135 40.5107 49.6226 40.8551 49.6555C41.2502 49.6932 41.5826 49.3835 41.5826 48.9962V45.3988C41.5826 44.1004 40.5943 43.0287 39.3304 42.8959Z" fill="white"/>
<path id="Vector_16" d="M57.714 27.5152C57.5711 27.0459 56.9593 26.8927 56.6119 27.24L52.4651 31.3885L49.0926 28.0145L53.2397 23.8657C53.5869 23.5184 53.4334 22.9068 52.9644 22.7638C50.4273 21.99 47.6873 22.6733 45.8139 24.5474C44.0361 26.3258 43.3303 28.8851 43.9242 31.3108L40.911 34.3252C39.4923 33.1037 37.8483 32.1368 36.0491 31.5004V28.2944C38.4208 26.932 40.1947 24.6425 40.8714 21.9236C42.413 21.6412 43.5854 20.2883 43.5854 18.6659C43.5854 17.803 43.2533 17.0172 42.711 16.4271C43.2398 15.9277 43.5721 15.2221 43.5758 14.4402C43.5816 13.1832 42.7051 12.0554 41.4834 11.7545C41.3552 7.73863 38.9659 4.28611 35.5502 2.62522C35.6309 1.49094 34.7061 0.5 33.5702 0.5H28.4296C27.3063 0.5 26.3868 1.46921 26.4479 2.5921C22.9897 4.24212 20.5665 7.72167 20.444 11.7726C19.2575 12.0994 18.4184 13.2109 18.4241 14.4402C18.4276 15.2222 18.76 15.9278 19.2891 16.4274C18.747 17.0174 18.4145 17.803 18.4145 18.6659C18.4145 20.2885 19.5869 21.6413 21.1286 21.9238C21.8024 24.6307 23.5636 26.9121 25.9196 28.2767V31.4983C24.1267 32.1323 22.4877 33.0938 21.0731 34.3097L18.0755 31.311C18.6695 28.8851 17.9637 26.326 16.1858 24.5475C14.3124 22.6735 11.5724 21.9902 9.03529 22.764C8.56645 22.9069 8.41277 23.5186 8.76 23.8658L12.9074 28.0145L9.53487 31.3883L5.38802 27.2399C5.0408 26.8925 4.42888 27.0457 4.28593 27.515C3.51239 30.0531 4.19545 32.7938 6.0687 34.6677C7.84656 36.4464 10.4049 37.1527 12.8297 36.5583L16.7396 40.4696C16.1008 42.1494 15.7493 43.9698 15.7493 45.8713V45.9998C15.7493 46.3457 16.0022 46.6546 16.3467 46.6875C16.7417 46.7251 17.0741 46.4155 17.0741 46.0281V45.8711C17.0741 40.2151 20.6628 34.9741 25.9197 32.911V33.1433C25.9197 35.9368 28.1917 38.2096 30.9844 38.2096C33.777 38.2096 36.0491 35.9368 36.0491 33.1433V32.9141C41.3047 34.9773 44.8946 40.2155 44.8946 45.8713V45.9998C44.8946 46.3457 45.1475 46.6548 45.492 46.6876C45.887 46.7252 46.2194 46.4156 46.2194 46.0283V45.8713C46.2194 41.7346 44.5626 37.979 41.8785 35.2311L45.1332 31.9751C45.3074 31.8009 45.3686 31.545 45.2971 31.3094C44.6686 29.2416 45.2255 27.0098 46.7509 25.4837C47.9975 24.2367 49.7159 23.6371 51.4298 23.8023L47.6875 27.546C47.4289 27.8046 47.4289 28.2239 47.6875 28.4825L51.9967 32.7934C52.2515 33.0485 52.6786 33.0485 52.9335 32.7934L56.6751 29.0503C56.8406 30.7654 56.2409 32.4839 54.9942 33.7312C53.4678 35.2582 51.2353 35.815 49.167 35.1841C48.9329 35.113 48.6785 35.1763 48.5053 35.3494L46.2031 37.6524C45.9585 37.8971 45.9189 38.2944 46.1391 38.5612C46.3919 38.8673 46.8459 38.8833 47.1197 38.6093L49.17 36.5583C51.5946 37.1525 54.1531 36.4462 55.931 34.6677C57.8045 32.7939 58.4876 30.0532 57.714 27.5152ZM17.3084 39.1649L13.4945 35.3496C13.3214 35.1763 13.0666 35.1128 12.8328 35.1842C10.7644 35.8151 8.53201 35.2582 7.00559 33.7313C5.75896 32.4842 5.15923 30.7657 5.3247 29.0505L9.06629 32.7935C9.32118 33.0487 9.74829 33.0487 10.0032 32.7935L14.3123 28.4827C14.5709 28.2241 14.5709 27.8048 14.3123 27.5462L10.5701 23.8025C12.2839 23.6367 14.0023 24.2369 15.2489 25.4839C16.7754 27.011 17.332 29.2449 16.7014 31.3139C16.63 31.548 16.6936 31.8022 16.8666 31.9752L20.1061 35.2159C18.977 36.3699 18.0287 37.7015 17.3084 39.1649ZM41.1229 20.4604C41.1546 20.1344 41.1716 17.1587 41.1716 17.1587C41.2797 17.1447 41.385 17.1224 41.4888 17.0963C41.9574 17.4603 42.2607 18.0276 42.2607 18.6657C42.2607 19.4578 41.7943 20.141 41.1229 20.4604ZM35.2731 3.97015C38.0631 5.4555 40.0038 8.33306 40.1556 11.6714H33.5362L35.2731 3.97015ZM28.4295 1.82479H33.5702C33.9886 1.82479 34.3084 2.22527 34.2163 2.63357L32.1779 11.6713H29.8218L27.7834 2.63291C27.69 2.21865 28.0049 1.82479 28.4295 1.82479ZM26.7192 3.9357L28.4639 11.6713H21.7724C21.9253 8.30736 23.8948 5.41098 26.7192 3.9357ZM19.7393 18.6659C19.7393 18.0277 20.0425 17.4604 20.5111 17.0964C20.615 17.1225 20.7203 17.1449 20.8284 17.1588C20.8284 17.1588 20.8454 20.1345 20.877 20.4606C20.2056 20.141 19.7393 19.4577 19.7393 18.6659ZM19.749 14.4341C19.7453 13.6516 20.3968 12.996 21.1796 12.996H40.8204C41.6032 12.996 42.2547 13.6516 42.251 14.4341C42.2474 15.2198 41.6056 15.859 40.8204 15.859H21.1796C20.3944 15.859 19.7527 15.2198 19.749 14.4341ZM34.7244 33.1435C34.7244 35.2066 33.0465 36.8851 30.9844 36.8851C28.9222 36.8851 27.2445 35.2066 27.2445 33.1435V28.9201C28.4072 29.3839 29.6737 29.6417 31 29.6417C32.3144 29.6417 33.5701 29.3884 34.7244 28.9324V33.1435ZM31 28.3171C26.1219 28.3171 22.1531 24.3483 22.1531 19.4701V17.1838H39.8469V19.4701C39.8469 24.3483 35.8781 28.3171 31 28.3171Z" fill="white"/>
<path id="Vector_17" d="M61.7556 56.1241L55.7162 51.2119L61.7556 46.2997C62.229 45.9147 61.9467 45.1234 61.3376 45.1234H50.8296C50.469 45.1234 50.1672 45.4252 50.1672 45.7858L50.168 51.2638H11.8506L11.8328 45.7836C11.8316 45.4186 11.5354 45.1233 11.1704 45.1233H0.662365C0.0533604 45.1233 -0.229084 45.9145 0.244395 46.2996L6.2837 51.2117L0.244395 56.1241C-0.229084 56.509 0.0532279 57.3003 0.662365 57.3003H10.5432V61.8376C10.5432 62.2034 10.8398 62.5 11.2055 62.5H50.8311C51.1969 62.5 51.4935 62.2034 51.4935 61.8376V57.3002H61.3376C61.9466 57.3002 62.229 56.509 61.7556 56.1241ZM2.52647 55.9754L7.7513 51.7256C8.07216 51.4648 8.07229 50.9588 7.7513 50.6979L2.52647 46.4481H10.51L10.541 55.9753H2.52647V55.9754ZM50.1687 61.1752H11.8679V52.5887H50.1687V61.1752ZM51.4935 55.9754V51.9263C51.4935 51.9241 51.4928 51.922 51.4928 51.9197L51.492 46.4483H59.4735L54.2486 50.6981C53.9278 50.959 53.9277 51.4649 54.2486 51.7259L59.4735 55.9757H51.4935V55.9754Z" fill="white"/>
</g>
<path id="XMLID_19_" d="M13.5303 3.77224L15.5 4.84996L13.5303 5.92767L12.453 7.89816L11.3757 5.92767L9.40601 4.84996L11.3757 3.77224L12.453 1.80176L13.5303 3.77224Z" fill="white"/>
<path id="XMLID_18_" d="M4.12432 14.7722L6.09402 15.85L4.12432 16.9277L3.04701 18.8982L1.96969 16.9277L0 15.85L1.96969 14.7722L3.04701 12.8018L4.12432 14.7722Z" fill="white"/>
<path id="XMLID_17_" d="M48.4697 3.77224L46.5 4.84996L48.4697 5.92767L49.547 7.89816L50.6243 5.92767L52.594 4.84996L50.6243 3.77224L49.547 1.80176L48.4697 3.77224Z" fill="white"/>
<path id="XMLID_16_" d="M57.8757 14.7722L55.906 15.85L57.8757 16.9277L58.953 18.8982L60.0303 16.9277L62 15.85L60.0303 14.7722L58.953 12.8018L57.8757 14.7722Z" fill="white"/>
</g>
</g>
<defs>
<clipPath id="clip0_116_3555">
<rect width="62" height="62" fill="white" transform="translate(0 0.5)"/>
</clipPath>
</defs>
</svg>
