<svg width="73" height="72" viewBox="0 0 73 72" fill="none" xmlns="http://www.w3.org/2000/svg">
<g id="Layer_1">
<g id="Group">
<g id="Group_2">
<path id="Vector" fill-rule="evenodd" clip-rule="evenodd" d="M13.1271 66.5591C7.04872 66.5591 2.12122 61.6316 2.12122 55.5532V18.7885H60.9012C61.6758 18.7885 62.3074 19.4202 62.3074 20.1947V65.1528C62.3074 65.9274 61.6758 66.5591 60.9012 66.5591H13.1271Z" fill="#ECEFF1"/>
<path id="Vector_2" fill-rule="evenodd" clip-rule="evenodd" d="M56.6824 18.7885H60.9013C61.6758 18.7885 62.3075 19.4202 62.3075 20.1947V65.1528C62.3075 65.9274 61.6758 66.5591 60.9013 66.5591H56.6824C57.4569 66.5591 58.0886 65.9274 58.0886 65.1528V20.1947C58.0886 19.4203 57.4569 18.7885 56.6824 18.7885Z" fill="#ECEFF1"/>
<path id="Vector_3" fill-rule="evenodd" clip-rule="evenodd" d="M13.1271 66.5591C7.04872 66.5591 2.12122 61.6316 2.12122 55.5532V18.7885H13.1271V66.5591Z" fill="#D1D1D6"/>
<path id="Vector_4" fill-rule="evenodd" clip-rule="evenodd" d="M2.12109 55.5532V16.4468C2.12109 10.3684 7.04859 5.44092 13.127 5.44092C14.8097 5.44092 16.4041 5.81878 17.8302 6.49406C18.3332 6.73214 18.6347 7.20843 18.6347 7.76503V43.8355C18.6347 44.3057 18.4257 44.7103 18.0421 44.9824C17.6585 45.2545 17.2076 45.3181 16.7638 45.1627C15.6253 44.7642 14.4016 44.5473 13.127 44.5473C7.04859 44.5472 2.12109 49.4747 2.12109 55.5532Z" fill="#D1D1D6"/>
</g>
<g id="Group_3">
<path id="Vector_5" fill-rule="evenodd" clip-rule="evenodd" d="M53.0345 15.6923V46.5109C53.0345 48.1816 51.6719 49.5441 50.0012 49.5441H48.7879C47.1172 49.5441 45.7546 48.1815 45.7546 46.5109V15.6923L48.7671 10.4747C48.9001 10.2442 49.1287 10.1125 49.3947 10.1123C49.6608 10.1123 49.8893 10.2442 50.0223 10.4747L53.0345 15.6923Z" fill="#E3A76F"/>
<path id="Vector_6" fill-rule="evenodd" clip-rule="evenodd" d="M48.0048 49.4412C46.7116 49.0944 45.7546 47.9109 45.7546 46.5109V15.6923L48.0048 11.795V49.4412Z" fill="#C48958"/>
<path id="Vector_7" fill-rule="evenodd" clip-rule="evenodd" d="M50.0222 10.4747L53.0345 15.6923H45.7545L48.767 10.4747C48.9 10.2442 49.1285 10.1125 49.3946 10.1123C49.6608 10.1123 49.8892 10.2442 50.0222 10.4747Z" fill="#685E68"/>
</g>
<g id="Group_4">
<path id="Vector_8" fill-rule="evenodd" clip-rule="evenodd" d="M33.1722 31.1164V51.1196C33.1722 51.8941 33.8039 52.5258 34.5785 52.5258H54.5815C54.7558 52.5258 54.9046 52.4264 54.9714 52.2654C55.0382 52.1044 55.0031 51.9289 54.8799 51.8057L33.8924 30.8181C33.7692 30.6949 33.5937 30.6601 33.4327 30.7267C33.2717 30.7934 33.1722 30.9422 33.1722 31.1164ZM27.6327 15.0272L70.6709 58.0653C70.8762 58.2706 70.9344 58.5633 70.8233 58.8316C70.7122 59.0999 70.4642 59.2656 70.1738 59.2656H27.8387C27.0642 59.2656 26.4325 58.6339 26.4325 57.8593V15.5243C26.4325 15.2339 26.5982 14.9859 26.8665 14.8748C27.1349 14.7635 27.4274 14.8217 27.6327 15.0272Z" fill="#FFE177"/>
<path id="Vector_9" fill-rule="evenodd" clip-rule="evenodd" d="M33.1722 31.1164V51.1194C32.3977 51.1194 31.7658 50.4878 31.7658 49.7132V29.7101C31.7658 29.5359 31.8653 29.3871 32.0263 29.3203C32.1873 29.2537 32.3628 29.2885 32.486 29.4117L33.8922 30.818C33.769 30.6948 33.5935 30.6599 33.4325 30.7266C33.2717 30.7934 33.1722 30.9422 33.1722 31.1164ZM69.2646 56.6591L70.6709 58.0653C70.8762 58.2707 70.9344 58.5633 70.8233 58.8316C70.7122 59.0999 70.4642 59.2656 70.1738 59.2656H27.8387C27.0642 59.2656 26.4325 58.6339 26.4325 57.8593V57.8592H68.7675C69.0579 57.8592 69.306 57.6935 69.4171 57.4252C69.5282 57.1569 69.4699 56.8644 69.2646 56.6591Z" fill="#FFD064"/>
<path id="Vector_10" fill-rule="evenodd" clip-rule="evenodd" d="M26.4325 22.6173H30.0859V24.0235H26.4325V22.6173ZM26.4325 52.6198H30.0859V54.026H26.4325V52.6198ZM26.4325 47.6193H30.0859V49.0255H26.4325V47.6193ZM26.4325 42.6189H30.0859V44.0252H26.4325V42.6189ZM26.4325 37.6185H30.0859V39.0247H26.4325V37.6185ZM26.4325 32.6181H30.0859V34.0244H26.4325V32.6181ZM26.4325 27.6176H30.0859V29.0239H26.4325V27.6176Z" fill="#837683"/>
</g>
</g>
</g>
</svg>
