<svg width="73" height="72" viewBox="0 0 73 72" fill="none" xmlns="http://www.w3.org/2000/svg">
<g id="Layer_1">
<g id="Group">
<g id="Group_2">
<path id="Vector" fill-rule="evenodd" clip-rule="evenodd" d="M15.1077 1.12515H50.3807C50.6977 1.12515 50.9702 1.23807 51.1944 1.46209L57.6548 7.92254C57.8788 8.14656 57.9918 8.41937 57.9918 8.7362V57.0475C57.9918 57.6813 57.4748 58.1981 56.8412 58.1981H15.1077C14.474 58.1981 13.9572 57.6811 13.9572 57.0475V2.27575C13.957 1.64209 14.474 1.12515 15.1077 1.12515Z" fill="#D1D1D6"/>
<path id="Vector_2" fill-rule="evenodd" clip-rule="evenodd" d="M50.8573 1.22485C50.9795 1.28068 51.092 1.35985 51.1943 1.46209L57.6547 7.92254C57.7571 8.02492 57.8361 8.13742 57.8919 8.25962H51.4325C51.1156 8.25962 50.8572 8.00115 50.8572 7.68432V1.22485H50.8573Z" fill="#A79BA7"/>
<path id="Vector_3" fill-rule="evenodd" clip-rule="evenodd" d="M8.20333 8.02942H43.4763C43.7933 8.02942 44.0658 8.14234 44.2899 8.36636L50.7504 14.8268C50.9744 15.0508 51.0873 15.3236 51.0873 15.6405V63.9518C51.0873 64.5856 50.5704 65.1024 49.9368 65.1024H8.20333C7.56953 65.1024 7.05273 64.5854 7.05273 63.9518V9.18001C7.05273 8.54622 7.56967 8.02942 8.20333 8.02942Z" fill="#ECEFF1"/>
<path id="Vector_4" fill-rule="evenodd" clip-rule="evenodd" d="M8.20333 8.02942H10.8983V65.1024H8.20333C7.56953 65.1024 7.05273 64.5854 7.05273 63.9518V9.18001C7.05273 8.54622 7.56967 8.02942 8.20333 8.02942Z" fill="#D1D1D6"/>
<path id="Vector_5" fill-rule="evenodd" clip-rule="evenodd" d="M43.953 8.12912C44.0752 8.18495 44.1877 8.26412 44.2901 8.36635L50.7505 14.8268C50.8529 14.929 50.9319 15.0417 50.9878 15.1637H44.5283C44.2115 15.1637 43.953 14.9053 43.953 14.5884V8.12912Z" fill="#A79BA7"/>
<path id="Vector_6" fill-rule="evenodd" clip-rule="evenodd" d="M29.9173 26.7481C29.3337 26.7481 28.8606 26.2749 28.8606 25.6915C28.8606 25.1079 29.3337 24.6348 29.9173 24.6348H42.1016C42.6852 24.6348 43.1582 25.1079 43.1582 25.6915C43.1582 26.2751 42.685 26.7481 42.1016 26.7481H29.9173ZM29.9173 19.0674C29.3337 19.0674 28.8606 18.5942 28.8606 18.0107C28.8606 17.4271 29.3337 16.954 29.9173 16.954H42.1016C42.6852 16.954 43.1582 17.4271 43.1582 18.0107C43.1582 18.5943 42.685 19.0674 42.1016 19.0674H29.9173ZM16.0388 57.4709C15.4552 57.4709 14.9822 56.9979 14.9822 56.4143C14.9822 55.8307 15.4552 55.3576 16.0388 55.3576H42.1016C42.6852 55.3576 43.1582 55.8307 43.1582 56.4143C43.1582 56.9979 42.685 57.4709 42.1016 57.4709H16.0388ZM16.0388 49.7903C15.4552 49.7903 14.9822 49.3171 14.9822 48.7336C14.9822 48.1501 15.4552 47.6769 16.0388 47.6769H42.1016C42.6852 47.6769 43.1582 48.15 43.1582 48.7336C43.1582 49.3172 42.685 49.7903 42.1016 49.7903H16.0388ZM16.0388 42.1095C15.4552 42.1095 14.9822 41.6363 14.9822 41.0528C14.9822 40.4692 15.4552 39.9961 16.0388 39.9961H42.1016C42.6852 39.9961 43.1582 40.4694 43.1582 41.0528C43.1582 41.6364 42.685 42.1095 42.1016 42.1095H16.0388ZM16.0388 34.4288C15.4552 34.4288 14.9822 33.9557 14.9822 33.3722C14.9822 32.7886 15.4552 32.3155 16.0388 32.3155H42.1016C42.6852 32.3155 43.1582 32.7886 43.1582 33.3722C43.1582 33.9557 42.685 34.4288 42.1016 34.4288H16.0388Z" fill="#333333"/>
<path id="Vector_7" fill-rule="evenodd" clip-rule="evenodd" d="M16.6664 16.954H23.0919C24.0183 16.954 24.7761 17.712 24.7761 18.6384V25.0639C24.7761 25.9903 24.0182 26.7481 23.0919 26.7481H16.6664C15.74 26.7481 14.9822 25.9902 14.9822 25.0639V18.6384C14.9822 17.7119 15.7401 16.954 16.6664 16.954Z" fill="#FFE177"/>
<path id="Vector_8" fill-rule="evenodd" clip-rule="evenodd" d="M23.35 16.9739C24.1551 17.099 24.7762 17.7996 24.7762 18.6383V25.0638C24.7762 25.9902 24.0182 26.748 23.092 26.748H16.6665C15.8278 26.748 15.1272 26.1269 15.0021 25.3218C15.0863 25.3349 15.1725 25.3416 15.2603 25.3416H21.6857C22.6121 25.3416 23.3701 24.5837 23.3701 23.6574V17.2319C23.3698 17.1443 23.3631 17.0581 23.35 16.9739Z" fill="#FFD064"/>
</g>
<g id="Group_3">
<path id="Vector_9" fill-rule="evenodd" clip-rule="evenodd" d="M53.7886 45.4815C54.798 45.7396 55.7508 46.1392 56.6248 46.6576L60.1747 44.0874L63.0153 46.928L60.445 50.4781C60.9633 51.3521 61.3627 52.3048 61.6209 53.3141L65.9473 54.0066V58.0239L61.6212 58.7164C61.3631 59.7258 60.9635 60.6786 60.4451 61.5524L63.0155 65.1025L60.1748 67.9431L56.6248 65.3728C55.7508 65.8911 54.798 66.2905 53.7888 66.5487L53.0962 70.8752H49.079L48.3864 66.5488C47.377 66.2908 46.4242 65.8911 45.5503 65.3728L42.0003 67.9431L39.1597 65.1025L41.73 61.5524C41.2117 60.6784 40.8123 59.7257 40.5541 58.7164L36.2277 58.0239V54.0066L40.5541 53.3141C40.8122 52.3046 41.2117 51.3521 41.73 50.4781L39.1597 46.928L42.0003 44.0874L45.5501 46.6576C46.4241 46.1392 47.3768 45.7397 48.3864 45.4817L49.079 41.1553H53.0962L53.7886 45.4815Z" fill="#FFE177"/>
<path id="Vector_10" fill-rule="evenodd" clip-rule="evenodd" d="M59.2364 44.7666L60.1747 44.0872L63.0153 46.9278L60.4449 50.4779C60.9633 51.3519 61.3627 52.3046 61.6208 53.3139L65.9473 54.0065V58.0237L61.6211 58.7163C61.3631 59.7257 60.9634 60.6784 60.4451 61.5523L63.0154 65.1024L60.1748 67.943L59.2365 67.2636L61.3978 65.1024L58.8276 61.5523C59.346 60.6783 59.7456 59.7257 60.0037 58.7163L64.33 58.0237V54.0065L60.0035 53.3139C59.7453 52.3046 59.346 51.3519 58.8276 50.4779L61.398 46.9278L59.2364 44.7666ZM53.7886 45.4815C54.7641 45.7308 55.6866 46.1125 56.5364 46.6058C56.5655 46.6262 56.5949 46.6438 56.6246 46.6577L55.9417 47.1521C55.0677 46.6338 53.1802 45.74 52.171 45.4816L51.4784 41.1552H53.096L53.7886 45.4815ZM56.5372 65.4238C55.6873 65.9173 54.7644 66.2989 53.7887 66.5485L53.0962 70.875H51.4785L52.1711 66.5485C53.1804 66.2904 55.0679 65.3964 55.9418 64.8781L56.6247 65.3725C56.5952 65.3863 56.5661 65.4036 56.5372 65.4238ZM41.3209 44.7666L42.0003 44.0872L45.5501 46.6574C45.2297 46.8073 44.9178 46.9726 44.6153 47.1519L41.3209 44.7666ZM45.5502 65.3725L42.0003 67.9428L41.3209 67.2635L44.6156 64.8781C44.918 65.0574 45.2299 65.2226 45.5502 65.3725Z" fill="#FFD064"/>
<path id="Vector_11" d="M57.5388 56.2067C57.6413 52.6696 54.8571 49.7191 51.32 49.6165C47.7829 49.5139 44.8324 52.2982 44.7298 55.8353C44.6272 59.3724 47.4115 62.3229 50.9486 62.4255C54.4857 62.5281 57.4362 59.7438 57.5388 56.2067Z" fill="#ECEFF1"/>
<path id="Vector_12" fill-rule="evenodd" clip-rule="evenodd" d="M51.0875 49.6105C51.3614 49.6105 51.6314 49.6278 51.8963 49.6612C48.7411 50.0588 46.3007 52.7518 46.3007 56.0149C46.3007 59.2779 48.7411 61.971 51.8963 62.3687C51.6314 62.4021 51.3614 62.4194 51.0875 62.4194C47.5503 62.4194 44.683 59.552 44.683 56.0149C44.683 52.478 47.5503 49.6105 51.0875 49.6105Z" fill="#D1D1D6"/>
</g>
</g>
</g>
</svg>
