<svg width="73" height="72" viewBox="0 0 73 72" fill="none" xmlns="http://www.w3.org/2000/svg">
<g id="Layer_1">
<g id="Group">
<g id="Group_2">
<path id="Vector" fill-rule="evenodd" clip-rule="evenodd" d="M11.275 1.125H49.7308C50.0763 1.125 50.3736 1.24819 50.6178 1.49245L57.6612 8.5358C57.9054 8.78006 58.0286 9.07734 58.0286 9.42286V62.0933C58.0286 62.7841 57.4651 63.3478 56.7741 63.3478H11.275C10.584 63.3478 10.0205 62.7841 10.0205 62.0933V2.37952C10.0205 1.68862 10.584 1.125 11.275 1.125Z" fill="#D1D1D6"/>
<path id="Vector_2" fill-rule="evenodd" clip-rule="evenodd" d="M50.25 1.23384C50.3832 1.29473 50.5058 1.38093 50.6174 1.49245L57.6608 8.53579C57.7723 8.64731 57.8587 8.76994 57.9194 8.90325H50.8772C50.5317 8.90325 50.25 8.62144 50.25 8.27606V1.23384Z" fill="#A79BA7"/>
<path id="Vector_3" fill-rule="evenodd" clip-rule="evenodd" d="M3.74768 8.65224H42.2034C42.5489 8.65224 42.8462 8.77542 43.0905 9.01969L50.1338 16.063C50.3781 16.3073 50.5013 16.6046 50.5013 16.9501V69.6205C50.5013 70.3114 49.9378 70.875 49.2468 70.875H3.74768C3.05665 70.875 2.49316 70.3114 2.49316 69.6205V9.90675C2.49316 9.21586 3.05665 8.65224 3.74768 8.65224Z" fill="#ECEFF1"/>
<path id="Vector_4" fill-rule="evenodd" clip-rule="evenodd" d="M3.74768 8.65224H6.68576V70.875H3.74768C3.05665 70.875 2.49316 70.3114 2.49316 69.6205V9.90675C2.49316 9.21586 3.05665 8.65224 3.74768 8.65224Z" fill="#D1D1D6"/>
<g id="Group_3">
<path id="Vector_5" fill-rule="evenodd" clip-rule="evenodd" d="M42.7229 8.76108C42.8561 8.82197 42.9787 8.90817 43.0904 9.01969L50.1337 16.063C50.2452 16.1745 50.3316 16.2972 50.3924 16.4305H43.3502C43.0047 16.4305 42.723 16.1488 42.723 15.8033V8.76108H42.7229Z" fill="#A79BA7"/>
<path id="Vector_6" fill-rule="evenodd" clip-rule="evenodd" d="M12.29 28.9117C11.7358 28.9117 11.2864 28.4624 11.2864 27.9082C11.2864 27.354 11.7357 26.9045 12.29 26.9045H40.7041C41.2583 26.9045 41.7078 27.3538 41.7078 27.9082C41.7078 28.4624 41.2585 28.9117 40.7041 28.9117H12.29ZM12.29 20.5379C11.7358 20.5379 11.2864 20.0886 11.2864 19.5342C11.2864 18.9799 11.7357 18.5306 12.29 18.5306H32.6871C33.2413 18.5306 33.6908 18.9799 33.6908 19.5342C33.6908 20.0886 33.2415 20.5379 32.6871 20.5379H12.29ZM12.29 62.4064C11.7358 62.4064 11.2864 61.9571 11.2864 61.4028C11.2864 60.8486 11.7357 60.3991 12.29 60.3991H40.7041C41.2583 60.3991 41.7078 60.8484 41.7078 61.4028C41.7078 61.957 41.2585 62.4064 40.7041 62.4064H12.29ZM12.29 54.0328C11.7358 54.0328 11.2864 53.5835 11.2864 53.0291C11.2864 52.4749 11.7357 52.0256 12.29 52.0256H40.7041C41.2583 52.0256 41.7078 52.4749 41.7078 53.0291C41.7078 53.5833 41.2585 54.0328 40.7041 54.0328H12.29ZM12.29 45.659C11.7358 45.659 11.2864 45.2097 11.2864 44.6555C11.2864 44.1013 11.7357 43.6518 12.29 43.6518H40.7041C41.2583 43.6518 41.7078 44.1011 41.7078 44.6555C41.7078 45.2097 41.2585 45.659 40.7041 45.659H12.29ZM12.29 37.2853C11.7358 37.2853 11.2864 36.836 11.2864 36.2817C11.2864 35.7275 11.7357 35.2782 12.29 35.2782H40.7041C41.2583 35.2782 41.7078 35.7275 41.7078 36.2817C41.7078 36.8359 41.2585 37.2853 40.7041 37.2853H12.29Z" fill="#A79BA7"/>
</g>
</g>
<g id="Group_4">
<path id="Vector_7" fill-rule="evenodd" clip-rule="evenodd" d="M58.673 28.1696L69.8197 47.476C70.7361 49.0634 70.7361 50.9789 69.8197 52.5662C68.9032 54.1534 67.2443 55.1112 65.4115 55.1112H43.1182C41.2855 55.1112 39.6264 54.1534 38.71 52.5662C37.7936 50.9789 37.7936 49.0634 38.71 47.476L49.8567 28.1696C50.7731 26.5823 52.4321 25.6245 54.2649 25.6245C56.0976 25.6245 57.7566 26.5822 58.673 28.1696Z" fill="#FE646F"/>
<path id="Vector_8" fill-rule="evenodd" clip-rule="evenodd" d="M58.6729 28.1696L69.8196 47.476C70.736 49.0634 70.736 50.9789 69.8196 52.5662C68.9031 54.1536 67.2441 55.1114 65.4112 55.1114H64.087C65.9199 55.1114 67.5788 54.1536 68.4953 52.5662C69.4117 50.9789 69.4117 49.0634 68.4953 47.476L57.3486 28.1696C56.544 26.776 55.1671 25.8677 53.6025 25.6669C53.8199 25.6389 54.041 25.6245 54.2647 25.6245C56.0975 25.6245 57.7565 26.5822 58.6729 28.1696Z" fill="#FD4755"/>
<path id="Vector_9" fill-rule="evenodd" clip-rule="evenodd" d="M56.375 29.4962L67.5216 48.8026C67.964 49.569 67.964 50.473 67.5216 51.2394C67.0791 52.0058 66.2962 52.4576 65.4114 52.4576H43.1181C42.2332 52.4576 41.4503 52.0056 41.0079 51.2394C40.5655 50.473 40.5653 49.569 41.0079 48.8026L52.1545 29.4962C52.5969 28.7298 53.3798 28.278 54.2647 28.278C55.1497 28.278 55.9324 28.73 56.375 29.4962Z" fill="#FFE177"/>
<path id="Vector_10" fill-rule="evenodd" clip-rule="evenodd" d="M44.4425 52.4578H43.1182C42.2333 52.4578 41.4504 52.0058 41.0079 51.2395C40.5655 50.4731 40.5653 49.5692 41.0079 48.8028L52.1545 29.4964C52.5969 28.73 53.3798 28.2781 54.2647 28.2781C54.4937 28.2781 54.7157 28.3085 54.9269 28.3666C54.322 28.5331 53.8069 28.9284 53.4789 29.4965L42.3323 48.8029C41.8899 49.5693 41.8899 50.4733 42.3323 51.2397C42.7747 52.0059 43.5576 52.4578 44.4425 52.4578Z" fill="#FFD064"/>
<path id="Vector_11" fill-rule="evenodd" clip-rule="evenodd" d="M54.2649 45.0412C53.5177 45.0413 52.9042 44.4496 52.8772 43.7029L52.5262 33.9833C52.5121 33.5924 52.6427 33.2508 52.9144 32.9692C53.186 32.6877 53.5226 32.5447 53.9139 32.5447H54.6159C55.0069 32.5447 55.3437 32.6877 55.6151 32.9692C55.8867 33.2508 56.0175 33.5924 56.0034 33.9833L55.6524 43.7029C55.6255 44.4495 55.0121 45.0412 54.2649 45.0412Z" fill="#FE646F"/>
<path id="Vector_12" fill-rule="evenodd" clip-rule="evenodd" d="M54.2649 45.0412C54.1176 45.0412 53.9756 45.0181 53.8423 44.9757C54.3859 44.8021 54.7859 44.3025 54.8074 43.7029L55.1584 33.9833C55.1725 33.5924 55.0417 33.2508 54.7701 32.9692C54.5152 32.705 54.203 32.5628 53.8423 32.5462C53.8659 32.5451 53.8897 32.5447 53.9137 32.5447H54.6157C55.0068 32.5447 55.3436 32.6877 55.615 32.9692C55.8866 33.2508 56.0173 33.5924 56.0033 33.9833L55.6523 43.7029C55.6256 44.4495 55.0121 45.0412 54.2649 45.0412Z" fill="#FD4755"/>
<path id="Vector_13" fill-rule="evenodd" clip-rule="evenodd" d="M54.2649 47.1033C55.2054 47.1033 55.968 47.8659 55.968 48.8064C55.968 49.7471 55.2054 50.5095 54.2649 50.5095C53.3242 50.5095 52.5618 49.7471 52.5618 48.8064C52.5618 47.8658 53.3242 47.1033 54.2649 47.1033Z" fill="#FE646F"/>
<path id="Vector_14" fill-rule="evenodd" clip-rule="evenodd" d="M54.2649 47.1033C55.2054 47.1033 55.968 47.8658 55.968 48.8064C55.968 49.7471 55.2054 50.5095 54.2649 50.5095C54.1254 50.5095 53.99 50.4927 53.8604 50.461C54.6057 50.2793 55.1589 49.6076 55.1589 48.8064C55.1589 48.0053 54.6057 47.3334 53.8604 47.1518C53.99 47.1202 54.1256 47.1033 54.2649 47.1033Z" fill="#FD4755"/>
</g>
</g>
</g>
</svg>
