<svg width="70" height="66" viewBox="0 0 70 66" fill="none" xmlns="http://www.w3.org/2000/svg">
<g id="Layer_1">
<g id="Group">
<g id="Group_2">
<path id="Vector" fill-rule="evenodd" clip-rule="evenodd" d="M41.6027 8.96221C53.8364 12.9178 62.6854 24.3987 62.6854 37.9495L62.5927 41.9973H1.85229C1.79123 41.2121 1.75952 38.7503 1.75952 37.9495C1.75952 24.399 10.6086 12.9183 22.8422 8.96236C22.1984 4.0034 28.2202 2.66525 32.2226 2.66525C36.2246 2.66539 42.2465 4.00325 41.6027 8.96221Z" fill="#FFE177"/>
<path id="Vector_2" fill-rule="evenodd" clip-rule="evenodd" d="M41.6357 8.97327C42.4035 9.22252 43.1579 9.50142 43.8975 9.80864L41.8802 25.3439C41.7988 25.9878 41.2106 26.4439 40.5667 26.3624C39.9227 26.281 39.4667 25.6929 39.5481 25.0489L41.6357 8.97327ZM20.5764 9.79654C21.3162 9.49021 22.0708 9.21205 22.8387 8.96368L24.9276 25.0491C25.009 25.693 24.553 26.2812 23.909 26.3626C23.2651 26.444 22.6769 25.988 22.5955 25.3441L20.5764 9.79654Z" fill="#FFC338"/>
<path id="Vector_3" fill-rule="evenodd" clip-rule="evenodd" d="M49.1979 41.9973C49.1979 42.6489 48.6696 43.1772 48.018 43.1772C47.3664 43.1772 46.8381 42.6489 46.8381 41.9973V23.0306C46.8381 22.379 47.3664 21.8507 48.018 21.8507C48.6696 21.8507 49.1979 22.379 49.1979 23.0306V41.9973ZM17.6067 41.9973C17.6067 42.6489 17.0784 43.1772 16.4268 43.1772C15.7752 43.1772 15.2469 42.6489 15.2469 41.9973V23.0306C15.2469 22.379 15.7752 21.8507 16.4268 21.8507C17.0784 21.8507 17.6067 22.379 17.6067 23.0306V41.9973Z" fill="#FFC338"/>
<path id="Vector_4" fill-rule="evenodd" clip-rule="evenodd" d="M41.6028 8.96221C53.8364 12.9178 62.6855 24.3987 62.6855 37.9495L62.5927 41.9973H59.6428L59.7356 37.9495C59.7356 24.3987 50.8865 12.918 38.6529 8.96221C39.2213 4.58376 34.5936 3.02851 30.7476 2.72424C31.2576 2.68383 31.754 2.66525 32.2224 2.66525C36.2246 2.66539 42.2465 4.00325 41.6028 8.96221Z" fill="#FFD064"/>
<path id="Vector_5" fill-rule="evenodd" clip-rule="evenodd" d="M41.6356 8.97327C41.8029 9.02754 41.9694 9.08329 42.1352 9.14037L42.2129 9.16721C42.3768 9.22414 42.5399 9.28225 42.7024 9.34184L42.7779 9.36956C42.9384 9.42885 43.0983 9.48947 43.2574 9.55142L43.3412 9.58416C43.4993 9.6461 43.6568 9.70952 43.8136 9.77397L43.8966 9.80834L43.8975 9.80878L43.7257 11.1322C42.9997 10.7403 42.2564 10.3766 41.4967 10.0431L41.6356 8.97327Z" fill="#F5B829"/>
<path id="Vector_6" fill-rule="evenodd" clip-rule="evenodd" d="M1.00864 40.329H63.4361C65.7369 40.329 67.6195 42.2116 67.6195 44.5122C67.6195 46.813 65.7369 48.6954 63.4361 48.6954H1.00864C-1.29216 48.6954 -3.17468 46.8129 -3.17468 44.5122C-3.17468 42.2114 -1.29216 40.329 1.00864 40.329Z" fill="#FFC338"/>
<path id="Vector_7" fill-rule="evenodd" clip-rule="evenodd" d="M65.5608 40.9128C66.7907 41.6433 67.6195 42.9856 67.6195 44.5122C67.6195 46.813 65.737 48.6954 63.4362 48.6954H1.00873C-0.517913 48.6954 -1.86005 47.8665 -2.5907 46.6366C-1.96697 47.0071 -1.24031 47.2204 -0.466145 47.2204H61.9613C64.2621 47.2204 66.1447 45.338 66.1447 43.0372C66.1447 42.2632 65.9313 41.5365 65.5608 40.9128Z" fill="#F5B829"/>
</g>
</g>
<g id="Group_3">
<path id="Vector_8" fill-rule="evenodd" clip-rule="evenodd" d="M56.1804 29.7155L67.292 34.4776C67.6085 34.6132 67.8025 34.9074 67.8025 35.2519V44.3623C67.8025 51.457 62.7227 56.9337 55.8486 58.1319C48.9746 56.9337 43.8948 51.457 43.8948 44.3623V35.2519C43.8948 34.9075 44.0888 34.6133 44.4053 34.4776L55.5169 29.7155C55.7366 29.6214 55.9607 29.6214 56.1804 29.7155Z" fill="#8AC9FE"/>
<path id="Vector_9" fill-rule="evenodd" clip-rule="evenodd" d="M56.1805 29.7155L67.2921 34.4776C67.6086 34.6132 67.8026 34.9074 67.8026 35.2519V44.3623C67.8026 51.457 62.7228 56.9337 55.8486 58.1318C55.6718 58.1011 55.4965 58.0667 55.3221 58.0303C61.9273 56.6502 66.7496 51.2745 66.7496 44.3623V35.2519C66.7496 34.9075 66.5556 34.6133 66.2391 34.4776L55.3221 29.799L55.5168 29.7155C55.7367 29.6214 55.9607 29.6214 56.1805 29.7155Z" fill="#60B7FF"/>
<path id="Vector_10" d="M55.8488 52.2755C60.5006 52.2755 64.2717 48.5045 64.2717 43.8526C64.2717 39.2008 60.5006 35.4298 55.8488 35.4298C51.197 35.4298 47.4259 39.2008 47.4259 43.8526C47.4259 48.5045 51.197 52.2755 55.8488 52.2755Z" fill="#ECEFF1"/>
<path id="Vector_11" fill-rule="evenodd" clip-rule="evenodd" d="M55.8488 35.4298C56.0256 35.4298 56.2011 35.4359 56.3753 35.4466C51.9689 35.7185 48.4789 39.3778 48.4789 43.8526C48.4789 48.3275 51.9689 51.9867 56.3753 52.2587C56.2011 52.2694 56.0256 52.2755 55.8488 52.2755C51.1971 52.2755 47.4259 48.5043 47.4259 43.8526C47.4259 39.2008 51.197 35.4298 55.8488 35.4298Z" fill="#D1D1D6"/>
<path id="Vector_12" fill-rule="evenodd" clip-rule="evenodd" d="M51.1652 44.6533C50.711 44.1991 50.711 43.4626 51.1652 43.0084C51.6195 42.5542 52.356 42.5542 52.8102 43.0084L54.5903 44.7885L58.8905 40.4489C59.3421 39.9947 60.0767 39.9926 60.5309 40.4444C60.9852 40.896 60.9872 41.6306 60.5354 42.0848C58.3145 44.3278 57.6461 45.0263 55.4147 47.2578C54.9604 47.712 54.224 47.712 53.7698 47.2578L51.1652 44.6533Z" fill="#8AC9FE"/>
</g>
<g id="Group_4">
<path id="Vector_13" d="M66.0916 59.0229C68.2501 56.8643 68.2501 53.3646 66.0916 51.2061C63.933 49.0475 60.4333 49.0475 58.2747 51.2061C56.1162 53.3646 56.1162 56.8643 58.2747 59.0229C60.4333 61.1814 63.933 61.1814 66.0916 59.0229Z" fill="#46CC6B"/>
<path id="Vector_14" fill-rule="evenodd" clip-rule="evenodd" d="M67.646 55.9744C67.2329 58.6191 64.9451 60.6426 62.1845 60.6426C62.0835 60.6426 61.9832 60.6397 61.8835 60.6344L58.9134 57.6643C58.839 57.6032 58.7749 57.5283 58.7251 57.4419C58.5774 57.1862 58.5772 56.8871 58.725 56.6314L59.4718 55.3397L58.7865 54.6544L60.7699 53.9355L62.9279 56.0935L62.962 56.0648L63.8962 56.999H64.6105L60.7454 53.1338L61.484 51.8528C61.6289 51.6014 61.8943 51.4476 62.1846 51.4476C62.4218 51.4476 62.6392 51.5488 62.7907 51.7222L64.1849 53.1165L64.5673 52.8957L67.646 55.9744Z" fill="#179C5F"/>
<path id="Vector_15" fill-rule="evenodd" clip-rule="evenodd" d="M60.6738 57.8472V56.999H59.4885L60.3282 55.5445L61.1391 56.0127L60.7699 53.9355L58.7865 54.6544L59.5974 55.1225L58.725 56.6314C58.5772 56.8871 58.5774 57.1862 58.7251 57.4419C58.8702 57.6932 59.1353 57.8472 59.4257 57.8472H60.6738V57.8472ZM62.962 56.0648L61.3478 57.4231L62.962 58.7813L62.962 57.8471H64.9434C65.235 57.8471 65.4983 57.6943 65.644 57.4419C65.7917 57.1862 65.7917 56.8871 65.644 56.6314L64.8794 55.307L64.1474 55.7309L64.8795 56.999H62.962V56.0648H62.962ZM60.7454 53.1338L61.4839 51.8528C61.6288 51.6014 61.8943 51.4476 62.1845 51.4476C62.4765 51.4476 62.7384 51.601 62.8844 51.8534L63.7573 53.3633L64.5673 52.8957L64.1981 54.9728L62.2146 54.2539L63.0246 53.7863L62.184 52.3302L61.4772 53.5544L60.7454 53.1338Z" fill="white"/>
</g>
</g>
</svg>
