<svg width="62" height="62" viewBox="0 0 62 62" fill="none" xmlns="http://www.w3.org/2000/svg">
<g id="Layer_1" clip-path="url(#clip0_116_3728)">
<g id="Group">
<path id="Vector" d="M37.0559 39.0707C37.8233 39.0707 38.541 38.7682 39.0769 38.2189L43.8372 33.3383C44.9236 32.2243 44.9011 30.434 43.7869 29.3474C42.6727 28.2611 40.8821 28.2836 39.7957 29.3976L37.0031 32.2605L36.5139 31.7848C35.3982 30.7003 33.6077 30.7251 32.5225 31.8408C31.4378 32.9564 31.4628 34.7466 32.5786 35.8315L35.0884 38.2718C35.6182 38.7869 36.317 39.0707 37.0559 39.0707ZM33.8277 33.1096C34.2133 32.7131 34.8494 32.7049 35.2452 33.0898L36.3858 34.1989C36.7457 34.549 37.3211 34.5412 37.6718 34.1819L41.0988 30.6685C41.4848 30.2726 42.1207 30.265 42.5162 30.6505C42.9119 31.0365 42.9198 31.6722 42.5341 32.0678L37.7738 36.9483C37.4059 37.3417 36.7358 37.35 36.3573 36.9671L33.8475 34.5269C33.4514 34.1415 33.4424 33.5057 33.8277 33.1096Z" fill="white"/>
<path id="Vector_2" d="M30.0213 39.6901C29.7185 39.2889 29.1481 39.2089 28.7465 39.5117C28.3452 39.8144 28.2655 40.385 28.5682 40.7862C28.8996 41.2254 29.2663 41.6466 29.6576 42.0379C31.8953 44.2754 34.8705 45.5075 38.035 45.5075C41.1996 45.5075 44.1746 44.2754 46.4123 42.0379C48.6501 39.8006 49.8823 36.8258 49.8823 33.6618C49.8823 30.4976 48.65 27.5229 46.4123 25.2856C41.7929 20.667 34.277 20.6671 29.6576 25.2856C26.5083 28.4344 25.3939 33.0278 26.7493 37.2734C26.9021 37.7522 27.4146 38.0162 27.8931 37.8636C28.3719 37.7108 28.6362 37.1987 28.4833 36.72C27.3359 33.1262 28.2791 29.2378 30.9449 26.5726C34.8543 22.6635 41.2158 22.6635 45.1252 26.5726C47.0191 28.4662 48.0622 30.9839 48.0622 33.6619C48.0622 36.3399 47.0191 38.8575 45.1252 40.7512C43.2314 42.6447 40.7134 43.6877 38.035 43.6877C35.3568 43.6877 32.8386 42.6449 30.9447 40.7512C30.6127 40.4189 30.302 40.0621 30.0213 39.6901Z" fill="white"/>
<path id="Vector_3" d="M60.748 50.2867L55.0064 44.5458C54.6508 44.1905 54.0747 44.1904 53.7191 44.5458L53.684 44.5809L51.4744 42.3717C52.9597 40.0818 53.8447 37.436 54.0188 34.6747C54.0504 34.1731 53.6694 33.741 53.1678 33.7092C52.6666 33.6787 52.234 34.0587 52.2022 34.5602C51.9848 38.0076 50.5183 41.2529 48.0726 43.6981C45.3088 46.4617 41.6793 47.8451 38.0486 47.8486C38.044 47.8485 38.0395 47.8479 38.0348 47.8479H37.9625C34.3515 47.8297 30.7461 46.4468 27.997 43.6981C25.3157 41.0174 23.8391 37.453 23.8391 33.6616C23.8391 29.8703 25.3157 26.3059 27.997 23.6251C33.5318 18.0909 42.5378 18.0909 48.0726 23.6251C50.1341 25.6864 51.4945 28.2864 52.0069 31.1443C52.0956 31.639 52.5689 31.9677 53.0633 31.8795C53.5581 31.7909 53.8872 31.318 53.7986 30.8232C53.2202 27.5976 51.6854 24.6635 49.3597 22.3382C48.2074 21.186 46.9214 20.2471 45.5515 19.5202V12.186C45.5507 11.9465 45.454 11.7121 45.2849 11.5425L34.0075 0.266527C33.8378 0.0977226 33.6035 0.000605469 33.3638 0H2.73042C1.22498 0 0.000121094 1.22462 0.000121094 2.72994V10.3786C0.000121094 10.8811 0.40748 11.2886 0.910262 11.2886C1.41292 11.2886 1.8204 10.8812 1.8204 10.3786V2.72994C1.8204 2.22813 2.22861 1.81992 2.73054 1.81992H32.454V10.3661C32.454 11.8714 33.6788 13.096 35.1843 13.096H43.7316V18.696C41.9558 18.0232 40.0837 17.6776 38.2086 17.6574C38.1996 17.6562 38.1909 17.6544 38.1816 17.6544H17.8621C17.3594 17.6544 16.9519 18.0619 16.9519 18.5644C16.9519 19.0669 17.3594 19.4744 17.8621 19.4744H30.6043C29.306 20.1533 28.0822 21.0222 26.974 22.081H17.8621C17.3594 22.081 16.9519 22.4884 16.9519 22.991C16.9519 23.4935 17.3594 23.901 17.8621 23.901H25.336C23.8504 25.8253 22.8351 28.0416 22.3492 30.4074H17.8622C17.3595 30.4074 16.952 30.8148 16.952 31.3174C16.952 31.8199 17.3595 32.2274 17.8622 32.2274H22.0834C22.0415 32.7017 22.0193 33.18 22.0193 33.6619C22.0193 34.0571 22.0337 34.4502 22.062 34.8405H17.8623C17.3596 34.8405 16.9522 35.248 16.9522 35.7505C16.9522 36.253 17.3596 36.6605 17.8623 36.6605H22.2992C22.7633 39.1237 23.7982 41.4317 25.3387 43.426H17.8623C17.3596 43.426 16.9522 43.8334 16.9522 44.3361C16.9522 44.8387 17.3596 45.2461 17.8623 45.2461H26.9776C28.0843 46.3029 29.3061 47.1704 30.6021 47.8484H17.8618C17.3592 47.8484 16.9517 48.2559 16.9517 48.7584C16.9517 49.2609 17.3592 49.6684 17.8618 49.6684H38.0348C39.9677 49.6682 41.9007 49.321 43.7313 48.6275V59.2705C43.7313 59.7722 43.3231 60.1806 42.8212 60.1806H2.73042C2.22861 60.1806 1.82028 59.7724 1.82028 59.2705V14.019C1.82028 13.5165 1.4128 13.109 0.910141 13.109C0.40748 13.109 0 13.5164 0 14.019V59.2705C0.000121094 60.7754 1.22498 62 2.73042 62H42.8213C44.3267 62 45.5516 60.7754 45.5516 59.2701V47.8028C45.9577 47.5873 46.3564 47.3529 46.7464 47.1L48.9555 49.3088C48.5732 49.6425 48.5528 50.2785 48.9203 50.6309L54.6621 56.3719C56.2638 58.0412 59.1463 58.0411 60.7479 56.3719C62.4175 54.7703 62.4174 51.8882 60.748 50.2867ZM35.1842 11.2761C34.6823 11.2761 34.274 10.8679 34.274 10.3661V3.1069L42.4443 11.2761H35.1842ZM48.231 46.0105C48.6194 45.6895 48.9965 45.3483 49.3597 44.9851C49.7209 44.624 50.0626 44.2471 50.3852 43.8565L52.3968 45.8678L50.2425 48.0217L48.231 46.0105ZM59.4609 55.0849C58.5367 56.0482 56.8735 56.048 55.9492 55.0849L50.8509 49.9874L54.3627 46.476L59.461 51.5736C60.4242 52.4979 60.4243 54.1608 59.4609 55.0849Z" fill="white"/>
<path id="Vector_4" d="M8.25934 24.8004H12.2409C13.3634 24.8004 14.2767 23.8873 14.2767 22.765V18.7839C14.2767 17.6615 13.3636 16.7485 12.2409 16.7485H8.25934C7.13692 16.7485 6.22363 17.6615 6.22363 18.7839V22.765C6.22363 23.8873 7.13692 24.8004 8.25934 24.8004ZM8.04391 18.7839C8.04391 18.6651 8.14067 18.5685 8.25934 18.5685H12.2409C12.3598 18.5685 12.4564 18.6651 12.4564 18.7839V22.765C12.4564 22.8838 12.3597 22.9804 12.2409 22.9804H8.25934C8.14055 22.9804 8.04391 22.8838 8.04391 22.765V18.7839Z" fill="white"/>
<path id="Vector_5" d="M6.22363 35.5243C6.22363 36.6466 7.1368 37.5596 8.25934 37.5596H12.2409C13.3634 37.5596 14.2767 36.6466 14.2767 35.5243V31.5432C14.2767 30.4209 13.3636 29.5079 12.2409 29.5079H8.25934C7.13692 29.5079 6.22363 30.4209 6.22363 31.5432V35.5243ZM8.04391 31.5432C8.04391 31.4244 8.14067 31.3278 8.25934 31.3278H12.2409C12.3598 31.3278 12.4564 31.4244 12.4564 31.5432V35.5243C12.4564 35.6431 12.3597 35.7397 12.2409 35.7397H8.25934C8.14055 35.7397 8.04391 35.6431 8.04391 35.5243V31.5432Z" fill="white"/>
<path id="Vector_6" d="M6.22363 48.5428C6.22363 49.6651 7.1368 50.5782 8.25934 50.5782H12.2409C13.3634 50.5782 14.2767 49.6651 14.2767 48.5428V44.5618C14.2767 43.4394 13.3636 42.5263 12.2409 42.5263H8.25934C7.13692 42.5263 6.22363 43.4394 6.22363 44.5618V48.5428ZM8.04391 44.5618C8.04391 44.443 8.14067 44.3463 8.25934 44.3463H12.2409C12.3598 44.3463 12.4564 44.443 12.4564 44.5618V48.5428C12.4564 48.6616 12.3597 48.7583 12.2409 48.7583H8.25934C8.14055 48.7583 8.04391 48.6616 8.04391 48.5428V44.5618Z" fill="white"/>
</g>
</g>
<defs>
<clipPath id="clip0_116_3728">
<rect width="62" height="62" fill="white"/>
</clipPath>
</defs>
</svg>
