<svg width="73" height="72" viewBox="0 0 73 72" fill="none" xmlns="http://www.w3.org/2000/svg">
<g id="Layer_1">
<g id="Group">
<g id="Group_2">
<path id="Vector" fill-rule="evenodd" clip-rule="evenodd" d="M64.3945 41.8555V45.6305L59.772 47.4097C59.1859 49.8726 58.2094 52.2249 56.882 54.3807L58.8938 58.9103L53.5551 64.2493L49.0268 62.2379C46.8708 63.5659 44.5175 64.5424 42.0541 65.1285L40.2752 69.75H32.725L30.9458 65.1275C28.4828 64.5414 26.1307 63.5649 23.9749 62.2375L19.4451 64.2494L14.1064 58.9106L16.1176 54.3822C14.7897 52.2261 13.8133 49.8728 13.2272 47.4095L8.60571 45.6307V41.8555H23.3328C23.3328 49.1282 29.2272 55.0228 36.4999 55.0228C43.7728 55.0228 49.6672 49.1282 49.6672 41.8556L64.3945 41.8555ZM27.9819 41.8556C27.9819 46.562 31.7935 50.3738 36.5001 50.3738C41.2067 50.3738 45.0184 46.5622 45.0184 41.8556H27.9819Z" fill="#FFE177"/>
<path id="Vector_2" fill-rule="evenodd" clip-rule="evenodd" d="M35.3255 50.293C35.7095 50.3458 36.1014 50.3738 36.4999 50.3738C41.2065 50.3738 45.0183 46.5622 45.0183 41.8556L42.6694 41.8555C42.6695 46.1035 39.5356 49.713 35.3255 50.293ZM23.9749 62.2375L19.445 64.2494L18.7227 63.527L22.9584 61.6458C23.2927 61.8514 23.6316 62.0488 23.9749 62.2375ZM49.0268 62.2381C46.8707 63.566 44.5175 64.5425 42.054 65.1286L40.2751 69.75H37.9263L39.705 65.1286C42.1685 64.5425 45.538 62.9741 47.6941 61.6463L49.0268 62.2381ZM64.3944 41.8555V45.6305L59.7719 47.4097C59.1858 49.8726 58.2093 52.2249 56.882 54.3807L58.8937 58.9103L53.555 64.2493L51.9286 63.5269L56.5449 58.9105L54.5331 54.3808C55.8605 52.2252 56.8368 49.8729 57.4231 47.4099L62.0456 45.6307V41.8556H64.3944V41.8555Z" fill="#FFD064"/>
</g>
<g id="Group_3">
<path id="Vector_3" fill-rule="evenodd" clip-rule="evenodd" d="M31.0799 13.6495C32.0802 11.1995 31.5863 8.28253 29.5977 6.29395C27.7304 4.42659 25.0442 3.87745 22.6949 4.64582L27.512 9.46279L26.5975 12.8759L23.1845 13.7904L18.3673 8.97328C17.5989 11.3226 18.1482 14.0088 20.0156 15.8761C22.0041 17.8646 24.9211 18.3586 27.3711 17.3582L38.8853 28.8724C37.8851 31.3224 38.4394 34.3 40.3674 36.2279C42.2953 38.1558 44.9209 38.6446 47.2702 37.8762L42.4531 33.059L43.3677 29.646L46.7807 28.7314L51.5978 33.5485C52.3663 31.1992 51.8775 28.5737 49.9497 26.6458C48.0217 24.7178 45.0441 24.1633 42.5942 25.1636L31.0799 13.6495Z" fill="#837683"/>
<path id="Vector_4" fill-rule="evenodd" clip-rule="evenodd" d="M31.0797 13.6495C32.0801 11.1995 31.5863 8.28252 29.5975 6.29394C27.7302 4.42658 25.044 3.8773 22.6947 4.64567L23.3677 5.3187C25.2467 5.19594 27.1671 5.85209 28.603 7.2883C30.5916 9.27688 31.0855 12.1939 30.0852 14.6438L41.5995 26.1581C44.0494 25.1577 47.027 25.7123 48.955 27.6402C50.4376 29.1229 51.069 31.0182 50.932 32.8832L51.5975 33.5486C52.366 31.1993 51.8772 28.5737 49.9494 26.6459C48.0214 24.7179 45.0438 24.1634 42.5938 25.1637L31.0797 13.6495ZM26.5974 12.8759L26.3874 13.6602L22.19 14.7849L18.0459 10.6409C18.0829 10.0766 18.1898 9.51608 18.3672 8.97341L23.1843 13.7905L26.5974 12.8759ZM45.6102 38.2051L41.4587 34.0536L42.5834 29.8564L43.3677 29.6463L42.4531 33.0592L47.2702 37.8765C46.7276 38.0538 46.1703 38.1639 45.6102 38.2051Z" fill="#685E68"/>
</g>
<g id="Group_4">
<path id="Vector_5" fill-rule="evenodd" clip-rule="evenodd" d="M33.9741 23.9615L34.2528 24.2404C34.8076 24.7953 34.8076 25.7009 34.2527 26.2557L24.556 35.9525C24.0011 36.5074 23.0956 36.5074 22.5407 35.9525L19.3606 32.7724C18.8056 32.2175 18.8056 31.3121 19.3606 30.7571L29.0574 21.0604C29.6125 20.5054 30.5178 20.5055 31.0727 21.0604L31.3171 21.3048L40.1959 12.426C42.4725 10.1496 40.8568 7.33753 38.0445 6.43401C36.3432 5.88726 34.8457 5.91947 33.1234 5.78517C36.5058 2.40258 41.978 0.609186 45.6558 4.28723L48.1499 6.7815C48.8943 7.52597 49.6337 8.11504 49.1243 8.68303C48.5171 9.36 48.4812 10.3784 49.1243 11.0215C49.746 11.6432 50.799 11.6851 51.4297 11.0544C51.7031 10.781 52.1495 10.781 52.4228 11.0544L54.764 13.3955C55.0373 13.6687 55.0372 14.1152 54.764 14.3885L48.742 20.4104C48.4686 20.6837 48.0225 20.684 47.749 20.4104L45.4077 18.0693C45.1345 17.7958 45.1342 17.3499 45.4077 17.0764C46.0332 16.4509 46.0331 15.4277 45.4077 14.8023C44.7824 14.177 43.7591 14.177 43.1337 14.8023L33.9741 23.9615Z" fill="#ECEFF1"/>
<path id="Vector_6" fill-rule="evenodd" clip-rule="evenodd" d="M33.9741 23.9615L34.2529 24.2404C34.8076 24.7953 34.8076 25.7009 34.2527 26.2557L24.5561 35.9525C24.094 36.4146 23.3887 36.4918 22.8452 36.1842C22.9543 36.1225 23.057 36.0453 23.1498 35.9525L32.8465 26.2557C33.4012 25.7009 33.4012 24.7953 32.8466 24.2404L32.5679 23.9615L41.7274 14.8022C42.2229 14.3066 42.9682 14.204 43.5676 14.4937C43.4105 14.5696 43.2635 14.6724 43.1337 14.8022L33.9741 23.9615ZM29.3621 20.8285C29.4712 20.8903 29.5738 20.9675 29.6665 21.0603L29.9109 21.3047L30.5031 20.7125C30.1275 20.5921 29.7114 20.6308 29.3621 20.8285ZM40.0511 2.28305C42.0464 2.10291 44.0271 2.6581 45.6559 4.28696L48.15 6.78122C48.8943 7.52569 49.6337 8.11477 49.1244 8.68275C48.5172 9.35972 48.4813 10.3781 49.1244 11.0212C49.2647 11.1616 49.427 11.2722 49.6015 11.3524C48.9891 11.6449 48.2157 11.5187 47.7181 11.0212C47.075 10.3781 47.1109 9.35972 47.7181 8.68275C48.2275 8.11477 47.4881 7.52555 46.7437 6.78122L44.2496 4.28696C43.0054 3.04271 41.5557 2.42536 40.0511 2.28305ZM51.2031 11.2409L53.3576 13.3954C53.631 13.6686 53.6308 14.1151 53.3575 14.3883L47.5422 20.2036L47.7489 20.4103C48.0223 20.6837 48.4685 20.6836 48.7419 20.4103L54.7639 14.3883C55.0372 14.1151 55.0372 13.6686 54.7639 13.3954L52.4227 11.0543C52.1494 10.781 51.703 10.7809 51.4296 11.0543C51.359 11.1248 51.2831 11.187 51.2031 11.2409Z" fill="#D1D1D6"/>
<path id="Vector_7" fill-rule="evenodd" clip-rule="evenodd" d="M24.5563 35.9525L34.2529 26.2557C34.8077 25.7009 34.8077 24.7953 34.2531 24.2404C33.1903 23.1774 32.1414 22.0978 31.0634 21.0509C30.5078 20.5055 29.6095 20.5085 29.0577 21.0604L19.3609 30.7571C18.8058 31.3121 18.8058 32.2175 19.3609 32.7724L22.541 35.9525C23.0957 36.5075 24.0013 36.5074 24.5563 35.9525Z" fill="#E3A76F"/>
<path id="Vector_8" fill-rule="evenodd" clip-rule="evenodd" d="M24.5562 35.9525L34.2528 26.2557C34.7149 25.7936 34.792 25.0883 34.4846 24.5448C34.4229 24.654 34.3457 24.7566 34.2528 24.8493L24.5562 34.5461C24.0013 35.101 23.0958 35.101 22.5409 34.5461L19.3608 31.366C19.268 31.2732 19.1908 31.1705 19.129 31.0614C18.8214 31.6049 18.8986 32.3101 19.3608 32.7722L22.5409 35.9523C23.0957 36.5075 24.0013 36.5074 24.5562 35.9525Z" fill="#C48958"/>
</g>
</g>
</g>
</svg>
