<svg width="62" height="63" viewBox="0 0 62 63" fill="none" xmlns="http://www.w3.org/2000/svg">
<g id="&#208;&#161;&#208;&#187;&#208;&#190;&#208;&#185;_1">
<g id="Group">
<path id="Vector" d="M9.3001 33.05V40.108C7.92215 40.8151 6.9751 42.2473 6.9751 43.9C6.9751 46.2502 8.88741 48.1625 11.2376 48.1625H28.6511C29.0789 48.1625 29.4261 47.8153 29.4261 47.3875C29.4261 46.9597 29.0789 46.6125 28.6511 46.6125H11.2376C9.74185 46.6125 8.5251 45.3958 8.5251 43.9C8.5251 42.4043 9.74185 41.1875 11.2376 41.1875H29.0626C29.4904 41.1875 29.8376 40.8403 29.8376 40.4125C29.8376 39.9847 29.4904 39.6375 29.0626 39.6375H11.2376C11.1066 39.6375 10.978 39.6457 10.8501 39.6573V33.05C10.8501 24.4603 16.9203 16.9506 25.722 14.4981L26.1381 20.3179C26.1687 20.745 26.5419 21.0662 26.9666 21.036C27.3936 21.0054 27.7149 20.6345 27.6846 20.2075L27.115 12.2417C27.0829 11.7964 27.2351 11.3582 27.5324 11.0389C27.8106 10.7397 28.1826 10.575 28.5802 10.575H34.9696C35.3672 10.575 35.7396 10.7397 36.0182 11.0389C36.3154 11.3578 36.4673 11.796 36.4356 12.2413L35.8659 20.2071C35.8353 20.6341 36.1566 21.005 36.584 21.0356C36.6026 21.0371 36.6212 21.0375 36.6398 21.0375C37.0428 21.0375 37.3826 20.726 37.4121 20.3179L37.8282 14.4988C46.4586 16.9087 52.5253 24.2654 52.6962 32.6784C52.7048 33.1008 53.05 33.4375 53.4708 33.4375H53.4871C53.9149 33.429 54.2547 33.0748 54.2462 32.6466C54.0594 23.4489 47.3886 15.4292 37.941 12.926L37.9821 12.3521C38.0445 11.4791 37.7422 10.6157 37.1532 9.98292C36.5778 9.36525 35.8024 9.02502 34.97 9.02502H28.5802C27.7478 9.02502 26.9724 9.36525 26.3974 9.98292C25.8084 10.6157 25.5061 11.4791 25.5685 12.3521L25.6096 12.9264C15.9744 15.4753 9.3001 23.6605 9.3001 33.05Z" fill="white"/>
<path id="Vector_2" d="M43.7875 31.5C36.7366 31.5 31 37.2366 31 44.2875C31 51.3385 36.7366 57.075 43.7875 57.075C50.8385 57.075 56.575 51.3385 56.575 44.2875C56.575 37.2366 50.8385 31.5 43.7875 31.5ZM43.7875 55.525C37.591 55.525 32.55 50.484 32.55 44.2875C32.55 38.091 37.591 33.05 43.7875 33.05C49.984 33.05 55.025 38.091 55.025 44.2875C55.025 50.484 49.984 55.525 43.7875 55.525Z" fill="white"/>
<path id="Vector_3" d="M50.7961 40.8333L43.0128 48.6162L37.942 43.5458C37.6397 43.2432 37.1484 43.2432 36.8461 43.5458C36.5435 43.8484 36.5435 44.339 36.8461 44.6417L42.4649 50.2604C42.616 50.4119 42.8144 50.4875 43.0128 50.4875C43.2112 50.4875 43.4096 50.4119 43.5607 50.2604L51.892 41.9292C52.1946 41.6265 52.1946 41.1359 51.892 40.8333C51.5897 40.5307 51.0984 40.5307 50.7961 40.8333Z" fill="white"/>
</g>
</g>
</svg>
