<svg width="24" height="24" viewBox="0 0 24 24" fill="none" xmlns="http://www.w3.org/2000/svg">
<g id="ph:arrow-left-light">
<path id="Vector" d="M3.18751 12C3.18751 11.8508 3.24677 11.7077 3.35226 11.6022C3.45775 11.4968 3.60082 11.4375 3.75001 11.4375L18.8916 11.4375L13.1025 5.64749C13.0472 5.596 13.0029 5.5339 12.9722 5.4649C12.9414 5.3959 12.9249 5.32141 12.9236 5.24588C12.9222 5.17036 12.9361 5.09534 12.9644 5.0253C12.9927 4.95525 13.0348 4.89163 13.0882 4.83821C13.1416 4.7848 13.2053 4.74269 13.2753 4.7144C13.3454 4.68611 13.4204 4.67222 13.4959 4.67355C13.5714 4.67488 13.6459 4.69141 13.7149 4.72216C13.7839 4.7529 13.846 4.79723 13.8975 4.85249L20.6475 11.6025C20.7528 11.708 20.812 11.8509 20.812 12C20.812 12.1491 20.7528 12.292 20.6475 12.3975L13.8975 19.1475C13.7909 19.2469 13.6498 19.3009 13.5041 19.2984C13.3584 19.2958 13.2194 19.2368 13.1163 19.1337C13.0132 19.0306 12.9542 18.8916 12.9516 18.7459C12.9491 18.6002 13.0031 18.4591 13.1025 18.3525L18.8916 12.5625L3.75001 12.5625C3.60082 12.5625 3.45775 12.5032 3.35226 12.3977C3.24677 12.2923 3.18751 12.1492 3.18751 12Z" fill="white"/>
</g>
</svg>
