<svg width="62" height="63" viewBox="0 0 62 63" fill="none" xmlns="http://www.w3.org/2000/svg">
<g id="Capa_1">
<g id="Group">
<path id="Vector" d="M46.4639 51.0807C44.9616 51.0807 43.7393 52.3031 43.7393 53.8054C43.7393 55.3076 44.9616 56.53 46.4639 56.53C47.9662 56.53 49.1885 55.3076 49.1885 53.8054C49.1885 52.3031 47.9662 51.0807 46.4639 51.0807ZM46.4639 54.7136C45.963 54.7136 45.5557 54.3062 45.5557 53.8054C45.5557 53.3045 45.963 52.8972 46.4639 52.8972C46.9647 52.8972 47.3721 53.3045 47.3721 53.8054C47.3721 54.3062 46.9647 54.7136 46.4639 54.7136Z" fill="white"/>
<path id="Vector_2" d="M49.1885 39.7247C49.1885 38.2224 47.9662 37.0001 46.4639 37.0001C44.9616 37.0001 43.7393 38.2224 43.7393 39.7247V46.5397C43.7393 48.042 44.9616 49.2643 46.4639 49.2643C47.9662 49.2643 49.1885 48.042 49.1885 46.5397V39.7247ZM47.3721 46.5397C47.3721 47.0405 46.9647 47.4479 46.4639 47.4479C45.963 47.4479 45.5557 47.0405 45.5557 46.5397V39.7247C45.5557 39.2238 45.963 38.8165 46.4639 38.8165C46.9647 38.8165 47.3721 39.2238 47.3721 39.7247V46.5397Z" fill="white"/>
<path id="Vector_3" d="M61.1 50.2079L58.0784 44.9696C57.8277 44.5351 57.2724 44.3859 56.8379 44.6369C56.4034 44.8874 56.2545 45.4429 56.5051 45.8773L59.5267 51.1155C61.3899 54.3452 59.0492 58.3828 55.3343 58.3828H37.5916C33.8779 58.3828 31.5352 54.3464 33.3992 51.1155L42.2706 35.7403C43.1457 34.2239 44.7139 33.3183 46.4654 33.3183C48.2138 33.3183 49.7801 34.224 50.6557 35.7407L54.6934 42.7364C54.9441 43.1709 55.4997 43.3198 55.9339 43.0694C56.3685 42.8188 56.5175 42.2634 56.2669 41.8289L54.4892 38.7472C57.429 37.1868 58.6371 33.4428 56.867 30.4276L54.9917 27.233C54.8575 13.738 43.8376 2.80078 30.3112 2.80078C23.7645 2.80078 17.5972 5.33733 12.9456 9.94338C12.5893 10.2962 12.5864 10.8713 12.9394 11.2277C13.2923 11.584 13.8674 11.587 14.2237 11.234C18.5329 6.96713 24.2462 4.61719 30.3112 4.61719C42.6148 4.61719 52.6781 14.3856 53.1568 26.5739H30.7566C30.2549 26.5739 29.8484 26.9804 29.8484 27.4821C29.8484 27.9838 30.2549 28.3903 30.7566 28.3903H53.5646L55.3005 31.3472C56.5597 33.4921 55.645 36.1232 53.5808 37.1736L52.2286 34.8326C51.0248 32.7474 48.8708 31.5019 46.4652 31.5019C44.0569 31.5019 41.9006 32.747 40.6972 34.8326L39.0905 37.6172H5.23924C3.09661 37.6173 1.81641 35.8616 1.81641 34.1641C1.81641 33.165 2.25404 32.2488 3.0489 31.584L6.86759 28.3903H19.8582C20.3599 28.3903 20.7664 27.9838 20.7664 27.4821C20.7664 26.9804 20.3599 26.5739 19.8582 26.5739H7.46373C7.64223 21.9616 9.17939 17.5869 11.9368 13.8709C12.2358 13.4681 12.1515 12.8993 11.7488 12.6004C11.3459 12.3014 10.7771 12.3857 10.4782 12.7885C7.39108 16.9488 5.72035 21.8732 5.63316 27.0548L1.88349 30.1907C0.668922 31.2065 0 32.6176 0 34.1641C0 36.7544 1.95978 39.4337 5.23924 39.4337H38.0427L31.8261 50.2079C29.2611 54.6535 32.4872 60.1992 37.5917 60.1992H55.3344C59.0098 60.1992 62 57.2061 62 53.5272C62 52.3761 61.6888 51.2282 61.1 50.2079Z" fill="white"/>
</g>
</g>
</svg>
