<svg width="71" height="70" viewBox="0 0 71 70" fill="none" xmlns="http://www.w3.org/2000/svg">
<g id="Group">
<g id="Group_2">
<path id="Vector" fill-rule="evenodd" clip-rule="evenodd" d="M10.4688 44.8114C12.9152 44.8114 14.8986 46.2057 14.8986 49.4211C14.8986 52.6365 12.9153 55.2431 10.4688 55.2431C8.0223 55.2431 6.03906 52.6365 6.03906 49.4211C6.03906 46.2057 8.0223 44.8114 10.4688 44.8114Z" fill="#FFECE3"/>
<path id="Vector_2" fill-rule="evenodd" clip-rule="evenodd" d="M10.4688 44.8114C12.9152 44.8114 14.8986 46.2057 14.8986 49.4211C14.8986 52.6365 12.9154 55.2431 10.4688 55.2431C10.2294 55.2431 9.99472 55.2178 9.76564 55.1698C11.8778 54.7269 13.4922 52.3219 13.4922 49.4211C13.4922 46.5203 11.8778 45.1018 9.7655 44.852C9.99458 44.8249 10.2294 44.8114 10.4688 44.8114Z" fill="#FFDDCE"/>
<path id="Vector_3" fill-rule="evenodd" clip-rule="evenodd" d="M2.03519 69.875H18.9025C19.6791 69.875 20.3125 69.2415 20.3125 68.4649V60.9329C20.3125 58.7423 18.3613 57.4984 16.1414 56.9478C12.4139 56.0232 8.635 55.9607 4.79608 56.9478C2.58138 57.5172 0.625 58.741 0.625 60.9329V68.4649C0.625 69.2415 1.25837 69.875 2.03519 69.875Z" fill="#FFE177"/>
<g id="Group_3">
<path id="Vector_4" fill-rule="evenodd" clip-rule="evenodd" d="M17.4961 69.875H18.9023C19.679 69.875 20.3124 69.2415 20.3124 68.4649V60.9329C20.3124 58.7423 18.3612 57.4985 16.1413 56.9478C14.0166 56.4207 11.8752 56.1739 9.71545 56.2418C11.3993 56.2946 13.0723 56.5353 14.7349 56.9478C16.9551 57.4983 18.9063 58.7423 18.9063 60.9329V68.4649C18.9063 69.2415 18.2728 69.875 17.4961 69.875Z" fill="#E9A422"/>
<path id="Vector_5" fill-rule="evenodd" clip-rule="evenodd" d="M3.97302 69.875V62.9884C3.97302 62.3672 4.47674 61.8634 5.09802 61.8634C5.7193 61.8634 6.22302 62.3672 6.22302 62.9884V69.875H3.97302ZM14.7144 69.875V62.9884C14.7144 62.3672 15.2181 61.8634 15.8394 61.8634C16.4607 61.8634 16.9644 62.3672 16.9644 62.9884V69.875H14.7144Z" fill="#E9A422"/>
</g>
</g>
<g id="Group_4">
<path id="Vector_6" fill-rule="evenodd" clip-rule="evenodd" d="M35.5 44.8114C37.9465 44.8114 39.9298 46.2057 39.9298 49.4211C39.9298 52.6365 37.9466 55.2431 35.5 55.2431C33.0535 55.2431 31.0703 52.6365 31.0703 49.4211C31.0703 46.2057 33.0535 44.8114 35.5 44.8114Z" fill="#FFECE3"/>
<path id="Vector_7" fill-rule="evenodd" clip-rule="evenodd" d="M35.5 44.8114C37.9465 44.8114 39.9298 46.2057 39.9298 49.4211C39.9298 52.6365 37.9466 55.2431 35.5 55.2431C35.2607 55.2431 35.0258 55.2178 34.7969 55.1698C36.9091 54.727 38.5236 52.322 38.5236 49.4212C38.5236 46.5204 36.9092 45.1019 34.7969 44.8522C35.0258 44.8249 35.2607 44.8114 35.5 44.8114Z" fill="#FFDDCE"/>
<path id="Vector_8" fill-rule="evenodd" clip-rule="evenodd" d="M27.0664 69.875H43.9337C44.7104 69.875 45.3438 69.2415 45.3438 68.4649V60.9329C45.3438 58.7423 43.3926 57.4984 41.1727 56.9478C37.4451 56.0232 33.6662 55.9607 29.8273 56.9478C27.6126 57.5172 25.6562 58.741 25.6562 60.9329V68.4649C25.6562 69.2415 26.2898 69.875 27.0664 69.875Z" fill="#FFE177"/>
<g id="Group_5">
<path id="Vector_9" fill-rule="evenodd" clip-rule="evenodd" d="M42.5275 69.875H43.9337C44.7104 69.875 45.3438 69.2415 45.3438 68.4649V60.9329C45.3438 58.7423 43.3926 57.4985 41.1727 56.9478C39.048 56.4207 36.9065 56.1739 34.7468 56.2418C36.4307 56.2946 38.1037 56.5353 39.7664 56.9478C41.9863 57.4983 43.9375 58.7423 43.9375 60.9329V68.4649C43.9375 69.2415 43.304 69.875 42.5275 69.875Z" fill="#E9A422"/>
<path id="Vector_10" fill-rule="evenodd" clip-rule="evenodd" d="M29.0043 69.875V62.9884C29.0043 62.3672 29.508 61.8634 30.1293 61.8634C30.7506 61.8634 31.2543 62.3672 31.2543 62.9884V69.875H29.0043ZM39.7456 69.875V62.9884C39.7456 62.3672 40.2494 61.8634 40.8706 61.8634C41.4919 61.8634 41.9956 62.3672 41.9956 62.9884V69.875H39.7456Z" fill="#E9A422"/>
</g>
</g>
<g id="Group_6">
<path id="Vector_11" fill-rule="evenodd" clip-rule="evenodd" d="M60.5312 44.8114C62.9777 44.8114 64.9611 46.2057 64.9611 49.4211C64.9611 52.6365 62.9777 55.2431 60.5312 55.2431C58.0848 55.2431 56.1016 52.6365 56.1016 49.4211C56.1016 46.2057 58.0848 44.8114 60.5312 44.8114Z" fill="#FFECE3"/>
<path id="Vector_12" fill-rule="evenodd" clip-rule="evenodd" d="M60.5312 44.8114C62.9777 44.8114 64.9611 46.2057 64.9611 49.4211C64.9611 52.6365 62.9777 55.2431 60.5312 55.2431C60.2919 55.2431 60.0572 55.2178 59.8281 55.1698C61.9405 54.727 63.5548 52.322 63.5548 49.4212C63.5548 46.5204 61.9405 45.1019 59.8281 44.8522C60.0571 44.8249 60.2919 44.8114 60.5312 44.8114Z" fill="#FFDDCE"/>
<path id="Vector_13" fill-rule="evenodd" clip-rule="evenodd" d="M52.0977 69.875H68.965C69.7416 69.875 70.375 69.2415 70.375 68.4649V60.9329C70.375 58.7423 68.4238 57.4984 66.2039 56.9478C62.4764 56.0232 58.6975 55.9607 54.8586 56.9478C52.6439 57.5172 50.6875 58.741 50.6875 60.9329V68.4649C50.6875 69.2415 51.321 69.875 52.0977 69.875Z" fill="#FFE177"/>
<g id="Group_7">
<path id="Vector_14" fill-rule="evenodd" clip-rule="evenodd" d="M67.5586 69.875H68.9648C69.7415 69.875 70.3749 69.2415 70.3749 68.4649V60.9329C70.3749 58.7423 68.4237 57.4985 66.2038 56.9478C64.0791 56.4207 61.9377 56.1739 59.778 56.2418C61.4618 56.2946 63.1348 56.5353 64.7974 56.9478C67.0176 57.4983 68.9688 58.7423 68.9688 60.9329V68.4649C68.9688 69.2415 68.3353 69.875 67.5586 69.875Z" fill="#E9A422"/>
<path id="Vector_15" fill-rule="evenodd" clip-rule="evenodd" d="M54.0355 69.875V62.9884C54.0355 62.3672 54.5392 61.8634 55.1605 61.8634C55.7818 61.8634 56.2855 62.3672 56.2855 62.9884V69.875H54.0355ZM64.7769 69.875V62.9884C64.7769 62.3672 65.2806 61.8634 65.9019 61.8634C66.5232 61.8634 67.0269 62.3672 67.0269 62.9884V69.875H64.7769Z" fill="#E9A422"/>
</g>
</g>
<g id="Group_8">
<path id="Vector_16" fill-rule="evenodd" clip-rule="evenodd" d="M51.0808 30.0068H53.3308V37.862H51.0808V30.0068Z" fill="#D1D1D6"/>
<path id="Vector_17" fill-rule="evenodd" clip-rule="evenodd" d="M70.375 4.06138V27.9958C70.375 29.5511 69.1064 30.8196 67.5511 30.8196H36.8605C35.3052 30.8196 34.0366 29.5511 34.0366 27.9958V4.06138C34.0366 3.6741 34.3525 3.35825 34.7397 3.35825H69.6718C70.0591 3.35825 70.375 3.6741 70.375 4.06138Z" fill="#ECEFF1"/>
<path id="Vector_18" fill-rule="evenodd" clip-rule="evenodd" d="M70.3749 4.06138V27.9958C70.3749 29.5511 69.1063 30.8196 67.551 30.8196H65.7635C67.3189 30.8196 68.5874 29.5511 68.5874 27.9958V4.06138C68.5874 3.6741 68.2716 3.35825 67.8843 3.35825H69.6718C70.0591 3.35825 70.3749 3.6741 70.3749 4.06138Z" fill="#D1D1D6"/>
<path id="Vector_19" fill-rule="evenodd" clip-rule="evenodd" d="M34.7397 3.35825H69.6718C70.0591 3.35825 70.375 3.6741 70.375 4.06138V7.13122H34.0366V4.06138C34.0366 3.6741 34.3525 3.35825 34.7397 3.35825Z" fill="#D1D1D6"/>
<path id="Vector_20" fill-rule="evenodd" clip-rule="evenodd" d="M70.375 4.06138V7.13122H68.5875V4.06138C68.5875 3.6741 68.2717 3.35825 67.8844 3.35825H69.6719C70.0592 3.35825 70.375 3.6741 70.375 4.06138Z" fill="#B1B1B5"/>
<path id="Vector_21" fill-rule="evenodd" clip-rule="evenodd" d="M52.2058 41.0661C53.7082 41.0661 54.9335 39.8407 54.9335 38.3383C54.9335 36.8359 53.708 35.6105 52.2058 35.6105C50.7033 35.6105 49.4779 36.8359 49.4779 38.3383C49.4779 39.8407 50.7033 41.0661 52.2058 41.0661Z" fill="#B1B1B5"/>
<path id="Vector_22" fill-rule="evenodd" clip-rule="evenodd" d="M52.2058 35.6106C53.7123 35.6106 54.9337 36.8319 54.9337 38.3384C54.9337 39.845 53.7123 41.0663 52.2058 41.0663C52.0755 41.0663 51.9472 41.0569 51.8218 41.0393C53.1463 40.8525 54.1656 39.7146 54.1656 38.3384C54.1656 36.9623 53.1465 35.8243 51.8218 35.6376C51.9472 35.62 52.0755 35.6106 52.2058 35.6106Z" fill="#A0A0A3"/>
<path id="Vector_23" fill-rule="evenodd" clip-rule="evenodd" d="M57.5624 14.6967H56.4374V12.4467H65.7352V14.6967H57.5624ZM57.5624 24.9422H56.4374V22.6922H65.7352V24.9422H57.5624ZM57.5624 19.8194H56.4374V17.5694H65.7352V19.8194H57.5624Z" fill="#D1D1D6"/>
</g>
<g id="Group_9">
<path id="Vector_24" d="M45.2857 25.1599C48.8565 25.1599 51.7512 22.2652 51.7512 18.6944C51.7512 15.1236 48.8565 12.2289 45.2857 12.2289C41.7149 12.2289 38.8202 15.1236 38.8202 18.6944C38.8202 22.2652 41.7149 25.1599 45.2857 25.1599Z" fill="#B9EA6A"/>
<path id="Vector_25" fill-rule="evenodd" clip-rule="evenodd" d="M45.2858 18.6944H51.7513C51.7513 21.0873 50.4512 23.1764 48.519 24.2944L45.2858 18.6944Z" fill="#FC5692"/>
<path id="Vector_26" fill-rule="evenodd" clip-rule="evenodd" d="M51.751 18.6944H45.2855V12.229C48.8564 12.229 51.751 15.1236 51.751 18.6944Z" fill="#FCDD2E"/>
</g>
<g id="Group_10">
<g id="Group_11">
<path id="Vector_27" fill-rule="evenodd" clip-rule="evenodd" d="M15.6624 0.125C18.2836 0.125 20.4084 1.61886 20.4084 5.06389C20.4084 8.50878 18.2836 11.3017 15.6624 11.3017C13.0411 11.3017 10.9163 8.50892 10.9163 5.06389C10.9163 1.61886 13.0411 0.125 15.6624 0.125Z" fill="#FFECE3"/>
<path id="Vector_28" fill-rule="evenodd" clip-rule="evenodd" d="M15.6624 0.125C18.2836 0.125 20.4084 1.61886 20.4084 5.06389C20.4084 8.50878 18.2836 11.3017 15.6624 11.3017C15.4234 11.3017 15.1887 11.2783 14.9592 11.2335C17.2469 10.7869 19.0022 8.19491 19.0022 5.06389C19.0022 1.93287 17.2469 0.413703 14.9592 0.162687C15.1887 0.137516 15.4234 0.125 15.6624 0.125Z" fill="#FFDDCE"/>
<path id="Vector_29" fill-rule="evenodd" clip-rule="evenodd" d="M6.62635 26.9788H24.6984C25.5306 26.9788 26.2092 26.3001 26.2092 25.4679V17.398C26.2092 15.0509 24.1187 13.7181 21.7402 13.1282C17.7464 12.1375 13.6975 12.0705 9.5844 13.1282C7.21163 13.7382 5.11548 15.0497 5.11548 17.398V25.468C5.11548 26.3001 5.79428 26.9788 6.62635 26.9788Z" fill="#FFE177"/>
<g id="Group_12">
<path id="Vector_30" fill-rule="evenodd" clip-rule="evenodd" d="M23.2921 26.9788H24.6983C25.5305 26.9788 26.2092 26.3001 26.2092 25.4679V17.398C26.2092 15.0509 24.1186 13.7181 21.7401 13.1282C19.4803 12.5676 17.2027 12.3028 14.9059 12.3703C16.727 12.4236 18.536 12.6823 20.3339 13.1282C22.7124 13.7182 24.8029 15.0509 24.8029 17.398V25.468C24.8029 26.3001 24.1243 26.9788 23.2921 26.9788Z" fill="#E9A422"/>
<path id="Vector_31" fill-rule="evenodd" clip-rule="evenodd" d="M8.78308 26.9788H11.0331V19.6004C11.0331 18.9792 10.5294 18.4754 9.90808 18.4754C9.2868 18.4754 8.78308 18.9792 8.78308 19.6004V26.9788ZM20.2915 26.9788H22.5415V19.6004C22.5415 18.9792 22.0378 18.4754 21.4165 18.4754C20.7953 18.4754 20.2915 18.9792 20.2915 19.6004V26.9788Z" fill="#E9A422"/>
</g>
</g>
<path id="Vector_32" fill-rule="evenodd" clip-rule="evenodd" d="M2.57605 25.8637H28.7486C29.1359 25.8637 29.4517 26.1796 29.4517 26.5669V30.3287C29.4517 30.716 29.1359 31.0318 28.7486 31.0318H2.57605C2.18877 31.0318 1.87292 30.716 1.87292 30.3287V26.5669C1.87307 26.1796 2.18891 25.8637 2.57605 25.8637Z" fill="#FFDDCE"/>
<path id="Vector_33" fill-rule="evenodd" clip-rule="evenodd" d="M28.0455 25.8637H28.7488C29.136 25.8637 29.4519 26.1796 29.4519 26.5669V30.3287C29.4519 30.716 29.136 31.0318 28.7488 31.0318H2.57605C2.18877 31.0318 1.87292 30.716 1.87292 30.3287V29.6255H27.3424C27.7296 29.6255 28.0455 29.3096 28.0455 28.9223V25.8637Z" fill="#FFBA9B"/>
</g>
</g>
</svg>
