<svg width="126" height="28" viewBox="0 0 126 28" fill="none" xmlns="http://www.w3.org/2000/svg">
<path d="M2.11832 25V0.627427H11.8769C13.6699 0.627427 15.1654 0.893209 16.3634 1.42477C17.5614 1.95634 18.4619 2.69418 19.0649 3.6383C19.6678 4.57448 19.9693 5.65348 19.9693 6.87528C19.9693 7.82733 19.7789 8.66435 19.3981 9.38632C19.0173 10.1004 18.4936 10.6875 17.8272 11.1476C17.1687 11.5998 16.415 11.9212 15.5661 12.1116V12.3496C16.4943 12.3893 17.3631 12.6511 18.1723 13.135C18.9895 13.619 19.652 14.2973 20.1597 15.17C20.6675 16.0348 20.9214 17.0662 20.9214 18.2642C20.9214 19.5574 20.6001 20.7118 19.9574 21.7273C19.3227 22.7349 18.3826 23.5323 17.137 24.1194C15.8914 24.7065 14.3562 25 12.5314 25H2.11832ZM7.27131 20.7872H11.4722C12.9083 20.7872 13.9555 20.5134 14.614 19.966C15.2725 19.4107 15.6018 18.6728 15.6018 17.7525C15.6018 17.0781 15.4391 16.4831 15.1139 15.9674C14.7886 15.4517 14.3244 15.0471 13.7215 14.7535C13.1264 14.46 12.4164 14.3132 11.5913 14.3132H7.27131V20.7872ZM7.27131 10.8263H11.0914C11.7975 10.8263 12.4243 10.7033 12.9717 10.4574C13.5271 10.2035 13.9635 9.84648 14.2808 9.38632C14.6061 8.92616 14.7687 8.37476 14.7687 7.73213C14.7687 6.85148 14.4553 6.1414 13.8286 5.60191C13.2097 5.06241 12.3291 4.79266 11.1866 4.79266H7.27131V10.8263ZM31.2387 25H22.5988V0.627427H31.3101C33.7616 0.627427 35.872 1.11535 37.6412 2.09121C39.4105 3.05913 40.7711 4.45151 41.7232 6.26834C42.6831 8.08518 43.1631 10.259 43.1631 12.7899C43.1631 15.3287 42.6831 17.5105 41.7232 19.3353C40.7711 21.1601 39.4025 22.5604 37.6174 23.5362C35.8403 24.5121 33.714 25 31.2387 25ZM27.7518 20.5849H31.0245C32.5477 20.5849 33.829 20.3151 34.8684 19.7756C35.9156 19.2282 36.7011 18.3832 37.2247 17.2408C37.7563 16.0904 38.022 14.6067 38.022 12.7899C38.022 10.9889 37.7563 9.51723 37.2247 8.37476C36.7011 7.2323 35.9196 6.39132 34.8803 5.85182C33.8409 5.31232 32.5596 5.04258 31.0364 5.04258H27.7518V20.5849ZM45.3047 0.627427H51.6596L58.3716 17.0027H58.6572L65.3692 0.627427H71.7241V25H66.7259V9.13641H66.5236L60.2162 24.881H56.8126L50.5053 9.0769H50.3029V25H45.3047V0.627427Z" fill="#E9A422"/>
<path d="M80.5455 4.09375C80.4858 3.88636 80.402 3.70312 80.294 3.54403C80.1861 3.3821 80.054 3.24574 79.8977 3.13494C79.7443 3.02131 79.5682 2.93466 79.3693 2.875C79.1733 2.81534 78.956 2.78551 78.7173 2.78551C78.2713 2.78551 77.8793 2.89631 77.5412 3.1179C77.206 3.33949 76.9446 3.66193 76.7571 4.08523C76.5696 4.50568 76.4759 5.01989 76.4759 5.62784C76.4759 6.2358 76.5682 6.75284 76.7528 7.17898C76.9375 7.60511 77.1989 7.9304 77.5369 8.15483C77.875 8.37642 78.2741 8.48722 78.7344 8.48722C79.152 8.48722 79.5085 8.41335 79.804 8.26562C80.1023 8.11506 80.3295 7.90341 80.4858 7.63068C80.6449 7.35795 80.7244 7.03551 80.7244 6.66335L81.0994 6.71875H78.8494V5.32955H82.5014V6.42898C82.5014 7.19602 82.3395 7.85511 82.0156 8.40625C81.6918 8.95455 81.2457 9.37784 80.6776 9.67614C80.1094 9.97159 79.4588 10.1193 78.7259 10.1193C77.9077 10.1193 77.1889 9.93892 76.5696 9.57812C75.9503 9.21449 75.4673 8.69886 75.1207 8.03125C74.777 7.3608 74.6051 6.56534 74.6051 5.64489C74.6051 4.9375 74.7074 4.30682 74.9119 3.75284C75.1193 3.19602 75.4091 2.72443 75.7812 2.33807C76.1534 1.9517 76.5866 1.65767 77.081 1.45597C77.5753 1.25426 78.1108 1.15341 78.6875 1.15341C79.1818 1.15341 79.642 1.22585 80.0682 1.37074C80.4943 1.51278 80.8722 1.71449 81.2017 1.97585C81.5341 2.23722 81.8054 2.5483 82.0156 2.90909C82.2259 3.26705 82.3608 3.66193 82.4205 4.09375H80.5455ZM86.2363 10.1278C85.563 10.1278 84.9835 9.99148 84.4977 9.71875C84.0147 9.44318 83.6425 9.05398 83.3812 8.55114C83.1198 8.04545 82.9891 7.44744 82.9891 6.7571C82.9891 6.08381 83.1198 5.4929 83.3812 4.98438C83.6425 4.47585 84.0104 4.07955 84.4849 3.79545C84.9621 3.51136 85.5218 3.36932 86.1638 3.36932C86.5957 3.36932 86.9977 3.43892 87.3698 3.57812C87.7448 3.71449 88.0715 3.92045 88.3499 4.19602C88.6312 4.47159 88.8499 4.81818 89.0062 5.2358C89.1624 5.65057 89.2406 6.13636 89.2406 6.69318V7.19176H83.7136V6.06676H87.5317C87.5317 5.8054 87.4749 5.57386 87.3613 5.37216C87.2477 5.17045 87.09 5.01278 86.8883 4.89915C86.6894 4.78267 86.4579 4.72443 86.1937 4.72443C85.9181 4.72443 85.6738 4.78835 85.4607 4.91619C85.2505 5.04119 85.0857 5.21023 84.9664 5.4233C84.8471 5.63352 84.786 5.8679 84.7832 6.12642V7.19602C84.7832 7.51989 84.8428 7.79972 84.9621 8.03551C85.0843 8.27131 85.2562 8.45312 85.4778 8.58097C85.6994 8.70881 85.9621 8.77273 86.2661 8.77273C86.4678 8.77273 86.6525 8.74432 86.8201 8.6875C86.9877 8.63068 87.1312 8.54545 87.2505 8.43182C87.3698 8.31818 87.4607 8.17898 87.5232 8.0142L89.2022 8.125C89.117 8.52841 88.9423 8.88068 88.6781 9.18182C88.4167 9.48011 88.0786 9.71307 87.6638 9.88068C87.2519 10.0455 86.7761 10.1278 86.2363 10.1278ZM95.2712 5.32102L93.6093 5.4233C93.5809 5.28125 93.5198 5.15341 93.4261 5.03977C93.3323 4.9233 93.2087 4.83097 93.0553 4.76278C92.9048 4.69176 92.7244 4.65625 92.5141 4.65625C92.2329 4.65625 91.9957 4.71591 91.8025 4.83523C91.6093 4.9517 91.5127 5.10795 91.5127 5.30398C91.5127 5.46023 91.5752 5.59233 91.7002 5.70028C91.8252 5.80824 92.0397 5.89489 92.3437 5.96023L93.5283 6.19886C94.1647 6.32955 94.6391 6.53977 94.9516 6.82955C95.2641 7.11932 95.4204 7.5 95.4204 7.97159C95.4204 8.40057 95.294 8.77699 95.0411 9.10085C94.7911 9.42472 94.4474 9.67756 94.0099 9.85938C93.5752 10.0384 93.0738 10.1278 92.5056 10.1278C91.6391 10.1278 90.9488 9.94744 90.4346 9.58665C89.9232 9.22301 89.6235 8.72869 89.5354 8.10369L91.321 8.00994C91.3749 8.27415 91.5056 8.47585 91.713 8.61506C91.9204 8.75142 92.186 8.8196 92.5099 8.8196C92.8281 8.8196 93.0837 8.75852 93.2769 8.63636C93.4729 8.51136 93.5724 8.35085 93.5752 8.15483C93.5724 7.99006 93.5028 7.85511 93.3664 7.75C93.23 7.64205 93.0198 7.55966 92.7357 7.50284L91.6022 7.27699C90.963 7.14915 90.4871 6.92756 90.1746 6.61222C89.865 6.29687 89.7102 5.89489 89.7102 5.40625C89.7102 4.9858 89.8238 4.62358 90.0511 4.3196C90.2812 4.01562 90.6036 3.78125 91.0184 3.61648C91.436 3.4517 91.9246 3.36932 92.4843 3.36932C93.311 3.36932 93.9616 3.54403 94.436 3.89347C94.9133 4.2429 95.1917 4.71875 95.2712 5.32102ZM99.445 3.45455V4.81818H95.5033V3.45455H99.445ZM96.3982 1.88636H98.2135V7.98864C98.2135 8.15625 98.2391 8.28693 98.2902 8.38068C98.3413 8.47159 98.4124 8.53551 98.5033 8.57244C98.597 8.60937 98.705 8.62784 98.8271 8.62784C98.9124 8.62784 98.9976 8.62074 99.0828 8.60653C99.168 8.58949 99.2334 8.5767 99.2788 8.56818L99.5643 9.91903C99.4734 9.94744 99.3456 9.98011 99.1808 10.017C99.0161 10.0568 98.8158 10.081 98.58 10.0895C98.1425 10.1065 97.7589 10.0483 97.4294 9.91477C97.1027 9.78125 96.8484 9.57386 96.6666 9.29261C96.4848 9.01136 96.3953 8.65625 96.3982 8.22727V1.88636ZM101.894 10.1236C101.476 10.1236 101.104 10.0511 100.778 9.90625C100.451 9.75852 100.192 9.54119 100.002 9.25426C99.8145 8.96449 99.7207 8.60369 99.7207 8.17188C99.7207 7.80824 99.7875 7.50284 99.921 7.25568C100.055 7.00852 100.236 6.80966 100.466 6.65909C100.697 6.50852 100.958 6.39489 101.251 6.31818C101.546 6.24148 101.856 6.1875 102.18 6.15625C102.56 6.11648 102.867 6.07955 103.1 6.04545C103.333 6.00852 103.502 5.95455 103.607 5.88352C103.712 5.8125 103.765 5.70739 103.765 5.56818V5.54261C103.765 5.27273 103.68 5.06392 103.509 4.91619C103.341 4.76847 103.103 4.6946 102.793 4.6946C102.466 4.6946 102.207 4.76705 102.013 4.91193C101.82 5.05398 101.692 5.23295 101.63 5.44886L99.9509 5.3125C100.036 4.91477 100.204 4.57102 100.454 4.28125C100.704 3.98864 101.026 3.7642 101.421 3.60795C101.819 3.44886 102.279 3.36932 102.802 3.36932C103.165 3.36932 103.513 3.41193 103.846 3.49716C104.181 3.58239 104.478 3.71449 104.736 3.89347C104.998 4.07244 105.204 4.30256 105.354 4.58381C105.505 4.86222 105.58 5.19602 105.58 5.58523V10H103.859V9.09233H103.807C103.702 9.29688 103.562 9.47727 103.386 9.63352C103.209 9.78693 102.998 9.90767 102.751 9.99574C102.503 10.081 102.218 10.1236 101.894 10.1236ZM102.414 8.87074C102.681 8.87074 102.917 8.81818 103.121 8.71307C103.326 8.60511 103.486 8.46023 103.603 8.27841C103.719 8.09659 103.778 7.89062 103.778 7.66051V6.96591C103.721 7.00284 103.643 7.03693 103.543 7.06818C103.447 7.09659 103.337 7.12358 103.215 7.14915C103.093 7.17187 102.971 7.19318 102.849 7.21307C102.726 7.23011 102.616 7.24574 102.516 7.25994C102.303 7.29119 102.117 7.34091 101.958 7.40909C101.799 7.47727 101.675 7.5696 101.587 7.68608C101.499 7.79972 101.455 7.94176 101.455 8.11222C101.455 8.35938 101.545 8.5483 101.724 8.67898C101.905 8.80682 102.136 8.87074 102.414 8.87074ZM101.651 2.64915L100.641 2.63636C100.641 2.09375 100.775 1.67756 101.042 1.38778C101.312 1.09801 101.64 0.951705 102.026 0.948864C102.225 0.948864 102.395 0.981534 102.538 1.04688C102.682 1.10938 102.812 1.18324 102.925 1.26847C103.042 1.35369 103.153 1.42898 103.258 1.49432C103.363 1.55682 103.476 1.58807 103.599 1.58807C103.763 1.58523 103.888 1.52415 103.974 1.40483C104.062 1.28267 104.106 1.12358 104.106 0.927557L105.099 0.957386C105.093 1.49432 104.957 1.90909 104.689 2.2017C104.422 2.49148 104.097 2.63778 103.714 2.64062C103.501 2.64062 103.322 2.60938 103.177 2.54688C103.035 2.48153 102.91 2.40767 102.802 2.32528C102.694 2.24006 102.589 2.16477 102.486 2.09943C102.384 2.03409 102.269 2.00142 102.141 2.00142C101.993 2.00142 101.874 2.05966 101.783 2.17614C101.695 2.29261 101.651 2.45028 101.651 2.64915ZM109.346 10.1278C108.684 10.1278 108.112 9.98722 107.629 9.70597C107.148 9.42187 106.778 9.02699 106.516 8.52131C106.255 8.01278 106.124 7.4233 106.124 6.75284C106.124 6.0767 106.255 5.4858 106.516 4.98011C106.778 4.47159 107.148 4.0767 107.629 3.79545C108.112 3.51136 108.684 3.36932 109.346 3.36932C110.008 3.36932 110.579 3.51136 111.059 3.79545C111.542 4.0767 111.914 4.47159 112.175 4.98011C112.437 5.4858 112.567 6.0767 112.567 6.75284C112.567 7.4233 112.437 8.01278 112.175 8.52131C111.914 9.02699 111.542 9.42187 111.059 9.70597C110.579 9.98722 110.008 10.1278 109.346 10.1278ZM109.354 8.72159C109.656 8.72159 109.907 8.63636 110.109 8.46591C110.31 8.29261 110.462 8.05682 110.565 7.75852C110.67 7.46023 110.722 7.12074 110.722 6.74006C110.722 6.35938 110.67 6.01989 110.565 5.72159C110.462 5.4233 110.31 5.1875 110.109 5.0142C109.907 4.84091 109.656 4.75426 109.354 4.75426C109.05 4.75426 108.795 4.84091 108.587 5.0142C108.383 5.1875 108.228 5.4233 108.123 5.72159C108.021 6.01989 107.969 6.35938 107.969 6.74006C107.969 7.12074 108.021 7.46023 108.123 7.75852C108.228 8.05682 108.383 8.29261 108.587 8.46591C108.795 8.63636 109.05 8.72159 109.354 8.72159ZM118.601 10.1278C117.999 10.1278 117.479 10.0199 117.042 9.80398C116.604 9.58807 116.268 9.29545 116.032 8.92614C115.799 8.55398 115.682 8.1392 115.682 7.68182C115.682 7.34091 115.75 7.03835 115.887 6.77415C116.023 6.50994 116.214 6.26705 116.458 6.04545C116.702 5.82102 116.986 5.59801 117.31 5.37642L119.002 4.2642C119.221 4.125 119.381 3.97869 119.483 3.82528C119.586 3.66903 119.637 3.5 119.637 3.31818C119.637 3.14489 119.567 2.98437 119.428 2.83665C119.289 2.68892 119.091 2.61648 118.836 2.61932C118.665 2.61932 118.518 2.65767 118.393 2.73438C118.268 2.80824 118.17 2.90625 118.099 3.02841C118.03 3.14773 117.996 3.28125 117.996 3.42898C117.996 3.6108 118.047 3.79545 118.15 3.98295C118.252 4.17045 118.388 4.36932 118.559 4.57955C118.729 4.78693 118.915 5.01136 119.117 5.25284L123.255 10H121.363L117.911 6.15625C117.684 5.89773 117.456 5.62784 117.229 5.34659C117.005 5.0625 116.817 4.76136 116.667 4.44318C116.516 4.12216 116.441 3.77415 116.441 3.39915C116.441 2.97585 116.539 2.59517 116.735 2.2571C116.934 1.91903 117.212 1.65199 117.57 1.45597C117.928 1.2571 118.346 1.15767 118.823 1.15767C119.289 1.15767 119.691 1.25284 120.029 1.44318C120.37 1.63068 120.631 1.88068 120.813 2.19318C120.998 2.50284 121.09 2.84375 121.09 3.21591C121.09 3.62784 120.988 4.00142 120.783 4.33665C120.581 4.66903 120.297 4.96733 119.931 5.23153L118.15 6.5142C117.908 6.69034 117.729 6.87074 117.613 7.0554C117.499 7.23722 117.442 7.41193 117.442 7.57955C117.442 7.78693 117.493 7.97301 117.596 8.13778C117.698 8.30256 117.843 8.43324 118.03 8.52983C118.218 8.62358 118.438 8.67045 118.691 8.67045C118.998 8.67045 119.3 8.60085 119.599 8.46165C119.9 8.3196 120.172 8.11932 120.417 7.8608C120.664 7.59943 120.861 7.28977 121.009 6.93182C121.157 6.57386 121.231 6.17756 121.231 5.7429H122.735C122.735 6.27699 122.677 6.75852 122.56 7.1875C122.444 7.61364 122.282 7.9858 122.074 8.30398C121.867 8.61932 121.63 8.87784 121.363 9.07955C121.277 9.13352 121.195 9.18466 121.116 9.23295C121.036 9.28125 120.954 9.33239 120.868 9.38636C120.545 9.64773 120.182 9.83665 119.782 9.95312C119.384 10.0696 118.991 10.1278 118.601 10.1278ZM82.0582 16.2727V25H80.4645L76.6676 19.5071H76.6037V25H74.7585V16.2727H76.3778L80.1449 21.7614H80.2216V16.2727H82.0582ZM85.9316 25.1278C85.2583 25.1278 84.6788 24.9915 84.193 24.7188C83.71 24.4432 83.3379 24.054 83.0765 23.5511C82.8151 23.0455 82.6844 22.4474 82.6844 21.7571C82.6844 21.0838 82.8151 20.4929 83.0765 19.9844C83.3379 19.4759 83.7058 19.0795 84.1802 18.7955C84.6575 18.5114 85.2171 18.3693 85.8592 18.3693C86.291 18.3693 86.693 18.4389 87.0651 18.5781C87.4401 18.7145 87.7668 18.9205 88.0452 19.196C88.3265 19.4716 88.5452 19.8182 88.7015 20.2358C88.8577 20.6506 88.9359 21.1364 88.9359 21.6932V22.1918H83.4089V21.0668H87.2271C87.2271 20.8054 87.1702 20.5739 87.0566 20.3722C86.943 20.1705 86.7853 20.0128 86.5836 19.8991C86.3847 19.7827 86.1532 19.7244 85.889 19.7244C85.6134 19.7244 85.3691 19.7884 85.156 19.9162C84.9458 20.0412 84.781 20.2102 84.6617 20.4233C84.5424 20.6335 84.4813 20.8679 84.4785 21.1264V22.196C84.4785 22.5199 84.5381 22.7997 84.6575 23.0355C84.7796 23.2713 84.9515 23.4531 85.1731 23.581C85.3947 23.7088 85.6575 23.7727 85.9614 23.7727C86.1631 23.7727 86.3478 23.7443 86.5154 23.6875C86.683 23.6307 86.8265 23.5455 86.9458 23.4318C87.0651 23.3182 87.156 23.179 87.2185 23.0142L88.8975 23.125C88.8123 23.5284 88.6376 23.8807 88.3734 24.1818C88.112 24.4801 87.7739 24.7131 87.3592 24.8807C86.9472 25.0455 86.4714 25.1278 85.9316 25.1278ZM92.4694 27.5909C91.8813 27.5909 91.3771 27.5099 90.9566 27.348C90.539 27.1889 90.2066 26.9716 89.9594 26.696C89.7123 26.4205 89.5518 26.1108 89.4779 25.767L91.1569 25.5412C91.208 25.6719 91.289 25.794 91.3998 25.9077C91.5106 26.0213 91.6569 26.1122 91.8387 26.1804C92.0234 26.2514 92.2478 26.2869 92.512 26.2869C92.9069 26.2869 93.2322 26.1903 93.4879 25.9972C93.7464 25.8068 93.8756 25.4872 93.8756 25.0384V23.8409H93.7989C93.7194 24.0227 93.6001 24.1946 93.441 24.3565C93.2819 24.5185 93.0773 24.6506 92.8273 24.7528C92.5773 24.8551 92.279 24.9062 91.9325 24.9062C91.441 24.9062 90.9935 24.7926 90.5901 24.5653C90.1896 24.3352 89.87 23.9844 89.6313 23.5128C89.3955 23.0384 89.2776 22.4389 89.2776 21.7145C89.2776 20.973 89.3984 20.3537 89.6398 19.8565C89.8813 19.3594 90.2023 18.9872 90.6029 18.7401C91.0063 18.4929 91.4481 18.3693 91.9282 18.3693C92.2947 18.3693 92.6015 18.4318 92.8487 18.5568C93.0958 18.679 93.2947 18.8324 93.4452 19.017C93.5987 19.1989 93.7165 19.3778 93.7989 19.554H93.8671V18.4545H95.6697V25.0639C95.6697 25.6207 95.5333 26.0866 95.2606 26.4616C94.9879 26.8366 94.61 27.1179 94.1271 27.3054C93.6469 27.4957 93.0944 27.5909 92.4694 27.5909ZM92.5077 23.5426C92.8004 23.5426 93.0475 23.4702 93.2492 23.3253C93.4538 23.1776 93.61 22.9673 93.718 22.6946C93.8288 22.419 93.8842 22.0895 93.8842 21.706C93.8842 21.3224 93.8302 20.9901 93.7222 20.7088C93.6143 20.4247 93.458 20.2045 93.2535 20.0483C93.0489 19.892 92.8004 19.8139 92.5077 19.8139C92.2094 19.8139 91.958 19.8949 91.7535 20.0568C91.5489 20.2159 91.3941 20.4375 91.289 20.7216C91.1839 21.0057 91.1313 21.3338 91.1313 21.706C91.1313 22.0838 91.1839 22.4105 91.289 22.6861C91.3969 22.9588 91.5518 23.1705 91.7535 23.321C91.958 23.4687 92.2094 23.5426 92.5077 23.5426ZM99.4717 25.1278C98.8097 25.1278 98.2373 24.9872 97.7543 24.706C97.2742 24.4219 96.9035 24.027 96.6421 23.5213C96.3808 23.0128 96.2501 22.4233 96.2501 21.7528C96.2501 21.0767 96.3808 20.4858 96.6421 19.9801C96.9035 19.4716 97.2742 19.0767 97.7543 18.7955C98.2373 18.5114 98.8097 18.3693 99.4717 18.3693C100.134 18.3693 100.705 18.5114 101.185 18.7955C101.668 19.0767 102.04 19.4716 102.301 19.9801C102.563 20.4858 102.693 21.0767 102.693 21.7528C102.693 22.4233 102.563 23.0128 102.301 23.5213C102.04 24.027 101.668 24.4219 101.185 24.706C100.705 24.9872 100.134 25.1278 99.4717 25.1278ZM99.4802 23.7216C99.7813 23.7216 100.033 23.6364 100.234 23.4659C100.436 23.2926 100.588 23.0568 100.69 22.7585C100.796 22.4602 100.848 22.1207 100.848 21.7401C100.848 21.3594 100.796 21.0199 100.69 20.7216C100.588 20.4233 100.436 20.1875 100.234 20.0142C100.033 19.8409 99.7813 19.7543 99.4802 19.7543C99.1762 19.7543 98.9205 19.8409 98.7131 20.0142C98.5086 20.1875 98.3538 20.4233 98.2487 20.7216C98.1464 21.0199 98.0952 21.3594 98.0952 21.7401C98.0952 22.1207 98.1464 22.4602 98.2487 22.7585C98.3538 23.0568 98.5086 23.2926 98.7131 23.4659C98.9205 23.6364 99.1762 23.7216 99.4802 23.7216ZM98.8197 17.6108L99.7231 15.6719H101.402L100.102 17.6108H98.8197ZM106.231 25.1278C105.561 25.1278 104.984 24.9858 104.501 24.7017C104.021 24.4148 103.651 24.017 103.393 23.5085C103.137 23 103.009 22.4148 103.009 21.7528C103.009 21.0824 103.139 20.4943 103.397 19.9886C103.659 19.4801 104.029 19.0838 104.509 18.7997C104.99 18.5128 105.561 18.3693 106.223 18.3693C106.794 18.3693 107.294 18.473 107.723 18.6804C108.151 18.8878 108.491 19.179 108.741 19.554C108.991 19.929 109.129 20.3693 109.154 20.875H107.441C107.393 20.5483 107.265 20.2855 107.058 20.0866C106.853 19.8849 106.585 19.7841 106.252 19.7841C105.971 19.7841 105.725 19.8608 105.515 20.0142C105.308 20.1648 105.146 20.3849 105.029 20.6747C104.913 20.9645 104.855 21.3153 104.855 21.7273C104.855 22.1449 104.911 22.5 105.025 22.7926C105.142 23.0852 105.305 23.3082 105.515 23.4616C105.725 23.6151 105.971 23.6918 106.252 23.6918C106.46 23.6918 106.646 23.6491 106.811 23.5639C106.978 23.4787 107.116 23.3551 107.224 23.1932C107.335 23.0284 107.407 22.831 107.441 22.6009H109.154C109.126 23.1009 108.99 23.5412 108.745 23.9219C108.504 24.2997 108.17 24.5952 107.744 24.8082C107.318 25.0213 106.813 25.1278 106.231 25.1278ZM109.717 25V18.4545H111.532V25H109.717ZM110.629 17.6108C110.359 17.6108 110.127 17.5213 109.934 17.3423C109.744 17.1605 109.648 16.9432 109.648 16.6903C109.648 16.4403 109.744 16.2259 109.934 16.0469C110.127 15.8651 110.359 15.7741 110.629 15.7741C110.898 15.7741 111.129 15.8651 111.319 16.0469C111.512 16.2259 111.609 16.4403 111.609 16.6903C111.609 16.9432 111.512 17.1605 111.319 17.3423C111.129 17.5213 110.898 17.6108 110.629 17.6108ZM115.344 25.1278C114.682 25.1278 114.109 24.9872 113.626 24.706C113.146 24.4219 112.775 24.027 112.514 23.5213C112.253 23.0128 112.122 22.4233 112.122 21.7528C112.122 21.0767 112.253 20.4858 112.514 19.9801C112.775 19.4716 113.146 19.0767 113.626 18.7955C114.109 18.5114 114.682 18.3693 115.344 18.3693C116.005 18.3693 116.576 18.5114 117.057 18.7955C117.54 19.0767 117.912 19.4716 118.173 19.9801C118.434 20.4858 118.565 21.0767 118.565 21.7528C118.565 22.4233 118.434 23.0128 118.173 23.5213C117.912 24.027 117.54 24.4219 117.057 24.706C116.576 24.9872 116.005 25.1278 115.344 25.1278ZM115.352 23.7216C115.653 23.7216 115.905 23.6364 116.106 23.4659C116.308 23.2926 116.46 23.0568 116.562 22.7585C116.667 22.4602 116.72 22.1207 116.72 21.7401C116.72 21.3594 116.667 21.0199 116.562 20.7216C116.46 20.4233 116.308 20.1875 116.106 20.0142C115.905 19.8409 115.653 19.7543 115.352 19.7543C115.048 19.7543 114.792 19.8409 114.585 20.0142C114.38 20.1875 114.226 20.4233 114.121 20.7216C114.018 21.0199 113.967 21.3594 113.967 21.7401C113.967 22.1207 114.018 22.4602 114.121 22.7585C114.226 23.0568 114.38 23.2926 114.585 23.4659C114.792 23.6364 115.048 23.7216 115.352 23.7216ZM124.592 20.321L122.93 20.4233C122.901 20.2812 122.84 20.1534 122.746 20.0398C122.653 19.9233 122.529 19.831 122.376 19.7628C122.225 19.6918 122.045 19.6562 121.834 19.6562C121.553 19.6562 121.316 19.7159 121.123 19.8352C120.93 19.9517 120.833 20.108 120.833 20.304C120.833 20.4602 120.896 20.5923 121.021 20.7003C121.146 20.8082 121.36 20.8949 121.664 20.9602L122.849 21.1989C123.485 21.3295 123.959 21.5398 124.272 21.8295C124.584 22.1193 124.741 22.5 124.741 22.9716C124.741 23.4006 124.614 23.777 124.361 24.1009C124.111 24.4247 123.768 24.6776 123.33 24.8594C122.896 25.0384 122.394 25.1278 121.826 25.1278C120.959 25.1278 120.269 24.9474 119.755 24.5866C119.244 24.223 118.944 23.7287 118.856 23.1037L120.641 23.0099C120.695 23.2741 120.826 23.4759 121.033 23.6151C121.241 23.7514 121.506 23.8196 121.83 23.8196C122.148 23.8196 122.404 23.7585 122.597 23.6364C122.793 23.5114 122.893 23.3509 122.896 23.1548C122.893 22.9901 122.823 22.8551 122.687 22.75C122.55 22.642 122.34 22.5597 122.056 22.5028L120.923 22.277C120.283 22.1491 119.807 21.9276 119.495 21.6122C119.185 21.2969 119.03 20.8949 119.03 20.4062C119.03 19.9858 119.144 19.6236 119.371 19.3196C119.601 19.0156 119.924 18.7812 120.339 18.6165C120.756 18.4517 121.245 18.3693 121.805 18.3693C122.631 18.3693 123.282 18.544 123.756 18.8935C124.234 19.2429 124.512 19.7187 124.592 20.321Z" fill="#E9A422"/>
</svg>
