<svg width="116" height="24" viewBox="0 0 116 24" fill="none" xmlns="http://www.w3.org/2000/svg">
<path d="M1.9502 22.4524V0.0141512H10.9343C12.585 0.0141512 13.9618 0.258839 15.0647 0.748215C16.1677 1.23759 16.9967 1.91687 17.5518 2.78606C18.1069 3.64795 18.3845 4.64131 18.3845 5.76614C18.3845 6.64264 18.2092 7.41322 17.8586 8.07789C17.508 8.73526 17.0259 9.27577 16.4123 9.69941C15.8061 10.1157 15.1122 10.4116 14.3307 10.5869V10.806C15.1853 10.8425 15.9851 11.0835 16.7301 11.5291C17.4824 11.9746 18.0923 12.5991 18.5598 13.4026C19.0272 14.1987 19.261 15.1483 19.261 16.2512C19.261 17.4418 18.9651 18.5045 18.3735 19.4394C17.7892 20.3671 16.9236 21.1011 15.7769 21.6416C14.6301 22.1821 13.2168 22.4524 11.5368 22.4524H1.9502ZM6.69422 18.5739H10.5618C11.8838 18.5739 12.8479 18.3219 13.4542 17.8179C14.0604 17.3066 14.3635 16.6274 14.3635 15.7801C14.3635 15.1592 14.2138 14.6114 13.9143 14.1367C13.6149 13.6619 13.1876 13.2894 12.6325 13.0191C12.0847 12.7489 11.4309 12.6137 10.6713 12.6137H6.69422V18.5739ZM6.69422 9.40359H10.2112C10.8612 9.40359 11.4382 9.29038 11.9422 9.06395C12.4535 8.83022 12.8552 8.50153 13.1474 8.07789C13.4469 7.65426 13.5966 7.14662 13.5966 6.55499C13.5966 5.74423 13.3081 5.09051 12.7311 4.59383C12.1614 4.09715 11.3506 3.84881 10.2988 3.84881H6.69422V9.40359ZM28.7594 22.4524H20.8052V0.0141512H28.8251C31.0821 0.0141512 33.025 0.463354 34.6538 1.36176C36.2826 2.25286 37.5353 3.53473 38.4118 5.20738C39.2956 6.88002 39.7375 8.88135 39.7375 11.2114C39.7375 13.5487 39.2956 15.5573 38.4118 17.2373C37.5353 18.9172 36.2753 20.2064 34.6319 21.1048C32.9958 22.0032 31.0383 22.4524 28.7594 22.4524ZM25.5492 18.3877H28.5622C29.9646 18.3877 31.1442 18.1393 32.101 17.6426C33.0652 17.1386 33.7883 16.3608 34.2704 15.309C34.7597 14.2499 35.0044 12.884 35.0044 11.2114C35.0044 9.55333 34.7597 8.19841 34.2704 7.14662C33.7883 6.09483 33.0688 5.32059 32.112 4.82391C31.1552 4.32723 29.9755 4.07889 28.5731 4.07889H25.5492V18.3877ZM41.7091 0.0141512H47.5596L53.7389 15.0898H54.0019L60.1812 0.0141512H66.0318V22.4524H61.4302V7.84781H61.2439L55.4371 22.3428H52.3037L46.4969 7.79303H46.3106V22.4524H41.7091V0.0141512Z" fill="#E9A422"/>
<path d="M74.1529 3.01489C74.098 2.82396 74.0208 2.65527 73.9215 2.5088C73.8221 2.35972 73.7005 2.23418 73.5566 2.13218C73.4154 2.02756 73.2532 1.94779 73.0701 1.89287C72.8897 1.83794 72.6896 1.81048 72.4699 1.81048C72.0593 1.81048 71.6983 1.91248 71.3871 2.11649C71.0785 2.32049 70.8379 2.61734 70.6652 3.00705C70.4926 3.39413 70.4063 3.86753 70.4063 4.42723C70.4063 4.98693 70.4913 5.46294 70.6613 5.85526C70.8313 6.24758 71.0719 6.54704 71.3832 6.75366C71.6944 6.95767 72.0619 7.05967 72.4856 7.05967C72.8701 7.05967 73.1983 6.99167 73.4703 6.85567C73.7449 6.71705 73.9542 6.5222 74.098 6.27112C74.2445 6.02003 74.3177 5.72318 74.3177 5.38056L74.6629 5.43156H72.5915V4.15261H75.9537V5.16478C75.9537 5.87095 75.8046 6.47774 75.5064 6.98513C75.2083 7.48991 74.7976 7.87961 74.2745 8.15423C73.7515 8.42624 73.1525 8.56224 72.4777 8.56224C71.7245 8.56224 71.0628 8.39616 70.4926 8.064C69.9225 7.72922 69.4778 7.25452 69.1587 6.63989C68.8423 6.02265 68.684 5.29033 68.684 4.44292C68.684 3.79168 68.7782 3.21105 68.9665 2.70104C69.1574 2.18841 69.4242 1.75425 69.7668 1.39855C70.1095 1.04285 70.5083 0.772152 70.9634 0.586456C71.4185 0.400759 71.9115 0.307911 72.4424 0.307911C72.8975 0.307911 73.3212 0.374605 73.7135 0.507993C74.1058 0.638765 74.4537 0.824461 74.7571 1.06508C75.0631 1.3057 75.3129 1.59209 75.5064 1.92425C75.7 2.2538 75.8242 2.61734 75.8791 3.01489H74.1529ZM79.3921 8.57009C78.7723 8.57009 78.2387 8.44455 77.7915 8.19346C77.3468 7.93977 77.0042 7.58145 76.7636 7.11852C76.523 6.65297 76.4027 6.10242 76.4027 5.46687C76.4027 4.84701 76.523 4.303 76.7636 3.83483C77.0042 3.36667 77.3429 3.00181 77.7797 2.74027C78.2191 2.47873 78.7343 2.34795 79.3254 2.34795C79.723 2.34795 80.0931 2.41203 80.4357 2.54019C80.7809 2.66573 81.0817 2.85535 81.338 3.10905C81.5969 3.36275 81.7983 3.68183 81.9422 4.0663C82.086 4.44815 82.1579 4.89539 82.1579 5.40802V5.86703H77.0696V4.83132H80.5848C80.5848 4.59069 80.5324 4.37754 80.4278 4.19184C80.3232 4.00614 80.1781 3.86099 79.9924 3.75637C79.8093 3.64914 79.5961 3.59552 79.3529 3.59552C79.0992 3.59552 78.8743 3.65437 78.6781 3.77206C78.4846 3.88714 78.3329 4.04276 78.223 4.23892C78.1132 4.43246 78.0569 4.64823 78.0543 4.88624V5.87095C78.0543 6.16911 78.1092 6.42673 78.2191 6.64382C78.3316 6.8609 78.4898 7.02829 78.6938 7.14598C78.8978 7.26367 79.1397 7.32252 79.4196 7.32252C79.6053 7.32252 79.7753 7.29637 79.9296 7.24406C80.0839 7.19175 80.216 7.11329 80.3258 7.00867C80.4357 6.90405 80.5194 6.7759 80.5769 6.6242L82.1226 6.7262C82.0442 7.09759 81.8833 7.42191 81.6401 7.69915C81.3995 7.97377 81.0882 8.18823 80.7064 8.34254C80.3271 8.49424 79.889 8.57009 79.3921 8.57009ZM87.71 4.14476L86.18 4.23892C86.1538 4.10815 86.0976 3.99045 86.0113 3.88583C85.925 3.7786 85.8112 3.6936 85.67 3.63083C85.5313 3.56544 85.3653 3.53275 85.1717 3.53275C84.9128 3.53275 84.6944 3.58767 84.5165 3.69752C84.3387 3.80475 84.2498 3.9486 84.2498 4.12907C84.2498 4.27292 84.3073 4.39454 84.4224 4.49392C84.5375 4.59331 84.7349 4.67308 85.0148 4.73324L86.1054 4.95293C86.6913 5.07324 87.1281 5.26679 87.4158 5.53356C87.7035 5.80034 87.8473 6.15081 87.8473 6.58497C87.8473 6.9799 87.7309 7.32645 87.4981 7.62461C87.268 7.92277 86.9515 8.15554 86.5487 8.32293C86.1486 8.4877 85.687 8.57009 85.1639 8.57009C84.3662 8.57009 83.7306 8.40401 83.2572 8.07185C82.7864 7.73707 82.5105 7.28198 82.4294 6.70659L84.0732 6.62028C84.1229 6.86351 84.2432 7.04921 84.4342 7.17737C84.6251 7.30291 84.8696 7.36568 85.1678 7.36568C85.4607 7.36568 85.6961 7.30945 85.874 7.19698C86.0544 7.0819 86.146 6.93413 86.1486 6.75366C86.146 6.60197 86.0819 6.47774 85.9563 6.38096C85.8308 6.28158 85.6373 6.20573 85.3757 6.15342L84.3322 5.94549C83.7437 5.8278 83.3056 5.62379 83.0179 5.33348C82.7328 5.04317 82.5903 4.67308 82.5903 4.22323C82.5903 3.83614 82.6949 3.50267 82.9041 3.22282C83.116 2.94297 83.4128 2.72719 83.7947 2.5755C84.1792 2.4238 84.629 2.34795 85.1443 2.34795C85.9053 2.34795 86.5043 2.5088 86.9411 2.8305C87.3805 3.1522 87.6368 3.59029 87.71 4.14476ZM91.5525 2.42642V3.68183H87.9236V2.42642H91.5525ZM88.7475 0.982695H90.4187V6.60066C90.4187 6.75497 90.4423 6.87528 90.4894 6.96159C90.5364 7.04529 90.6018 7.10413 90.6855 7.13813C90.7718 7.17213 90.8712 7.18913 90.9837 7.18913C91.0621 7.18913 91.1406 7.1826 91.2191 7.16952C91.2975 7.15383 91.3577 7.14206 91.3995 7.13421L91.6624 8.37785C91.5787 8.40401 91.461 8.43408 91.3093 8.46809C91.1576 8.5047 90.9732 8.52693 90.7561 8.53478C90.3534 8.55047 90.0003 8.49686 89.6969 8.37393C89.3961 8.251 89.162 8.06008 88.9946 7.80115C88.8272 7.54222 88.7449 7.21529 88.7475 6.82036V0.982695ZM93.8072 8.56616C93.4227 8.56616 93.0801 8.49947 92.7793 8.36608C92.4785 8.23008 92.2405 8.03 92.0653 7.76584C91.8927 7.49906 91.8064 7.1669 91.8064 6.76936C91.8064 6.43458 91.8678 6.15342 91.9908 5.92588C92.1137 5.69833 92.2811 5.51525 92.4929 5.37663C92.7048 5.23802 92.9454 5.1334 93.2148 5.06278C93.4868 4.99217 93.7719 4.94247 94.07 4.9137C94.4205 4.87709 94.703 4.84308 94.9174 4.8117C95.1319 4.7777 95.2875 4.72801 95.3843 4.66262C95.4811 4.59723 95.5294 4.50046 95.5294 4.37231V4.34877C95.5294 4.1003 95.451 3.90806 95.2941 3.77206C95.1397 3.63606 94.92 3.56806 94.635 3.56806C94.3342 3.56806 94.0949 3.63475 93.917 3.76814C93.7392 3.89891 93.6215 4.06368 93.5639 4.26246L92.0182 4.13692C92.0967 3.77075 92.251 3.45429 92.4811 3.18751C92.7113 2.91812 93.0082 2.7115 93.3717 2.56765C93.7379 2.42119 94.1616 2.34795 94.6428 2.34795C94.9776 2.34795 95.298 2.38719 95.604 2.46565C95.9126 2.54411 96.1859 2.66573 96.4239 2.8305C96.6645 2.99528 96.8542 3.20713 96.9928 3.46606C97.1314 3.72237 97.2007 4.02968 97.2007 4.388V8.45239H95.6158V7.61676H95.5687C95.4719 7.80507 95.3424 7.97115 95.1803 8.115C95.0181 8.25623 94.8233 8.36739 94.5957 8.44847C94.3682 8.52693 94.1053 8.56616 93.8072 8.56616ZM94.2858 7.41276C94.5317 7.41276 94.7487 7.36437 94.937 7.2676C95.1254 7.16821 95.2731 7.03482 95.3804 6.86744C95.4876 6.70005 95.5412 6.51043 95.5412 6.29858V5.6591C95.4889 5.6931 95.417 5.72449 95.3254 5.75326C95.2365 5.77941 95.1358 5.80426 95.0234 5.8278C94.9109 5.84872 94.7984 5.86834 94.686 5.88665C94.5735 5.90234 94.4715 5.91672 94.38 5.9298C94.1838 5.95857 94.0125 6.00434 93.866 6.06711C93.7196 6.12988 93.6058 6.21488 93.5247 6.32212C93.4436 6.42673 93.4031 6.55751 93.4031 6.71443C93.4031 6.94198 93.4855 7.1159 93.6503 7.23621C93.8176 7.35391 94.0295 7.41276 94.2858 7.41276ZM93.5836 1.68494L92.6538 1.67317C92.6538 1.17362 92.7767 0.79046 93.0225 0.523685C93.271 0.25691 93.5731 0.122215 93.9288 0.1196C94.1119 0.1196 94.2688 0.149677 94.3996 0.209832C94.533 0.267372 94.652 0.335373 94.7566 0.413836C94.8638 0.4923 94.9658 0.561609 95.0626 0.621764C95.1594 0.679304 95.264 0.708074 95.3764 0.708074C95.5281 0.705458 95.6432 0.649226 95.7217 0.539377C95.8028 0.426914 95.8433 0.280449 95.8433 0.0999839L96.7574 0.127446C96.7522 0.621764 96.6266 1.00362 96.3808 1.27301C96.1349 1.53978 95.8355 1.67448 95.4824 1.67709C95.2862 1.67709 95.1214 1.64832 94.988 1.59078C94.8573 1.53063 94.7422 1.46263 94.6428 1.38678C94.5434 1.30832 94.4467 1.23901 94.3525 1.17885C94.2583 1.1187 94.1524 1.08862 94.0347 1.08862C93.8987 1.08862 93.7889 1.14224 93.7052 1.24947C93.6241 1.3567 93.5836 1.50186 93.5836 1.68494ZM100.668 8.57009C100.058 8.57009 99.5312 8.44062 99.0866 8.18169C98.6446 7.92015 98.3032 7.5566 98.0626 7.09106C97.822 6.62289 97.7017 6.08019 97.7017 5.46294C97.7017 4.84047 97.822 4.29646 98.0626 3.83091C98.3032 3.36275 98.6446 2.9992 99.0866 2.74027C99.5312 2.47873 100.058 2.34795 100.668 2.34795C101.277 2.34795 101.803 2.47873 102.245 2.74027C102.689 2.9992 103.032 3.36275 103.273 3.83091C103.513 4.29646 103.634 4.84047 103.634 5.46294C103.634 6.08019 103.513 6.62289 103.273 7.09106C103.032 7.5566 102.689 7.92015 102.245 8.18169C101.803 8.44062 101.277 8.57009 100.668 8.57009ZM100.675 7.27544C100.953 7.27544 101.184 7.19698 101.37 7.04005C101.556 6.88051 101.695 6.66343 101.79 6.38881C101.886 6.11419 101.935 5.80164 101.935 5.45117C101.935 5.10071 101.886 4.78816 101.79 4.51354C101.695 4.23892 101.556 4.02184 101.37 3.86229C101.184 3.70275 100.953 3.62298 100.675 3.62298C100.396 3.62298 100.16 3.70275 99.9693 3.86229C99.781 4.02184 99.6384 4.23892 99.5417 4.51354C99.4475 4.78816 99.4004 5.10071 99.4004 5.45117C99.4004 5.80164 99.4475 6.11419 99.5417 6.38881C99.6384 6.66343 99.781 6.88051 99.9693 7.04005C100.16 7.19698 100.396 7.27544 100.675 7.27544ZM109.189 8.57009C108.634 8.57009 108.155 8.4707 107.753 8.27193C107.35 8.07315 107.04 7.80376 106.823 7.46376C106.608 7.12113 106.501 6.73928 106.501 6.31819C106.501 6.00434 106.564 5.7258 106.689 5.48256C106.815 5.23932 106.99 5.0157 107.215 4.8117C107.44 4.60508 107.702 4.39977 108 4.19576L109.557 3.17182C109.759 3.04366 109.906 2.90897 110.001 2.76773C110.095 2.62388 110.142 2.46826 110.142 2.30088C110.142 2.14134 110.078 1.99356 109.95 1.85756C109.821 1.72156 109.64 1.65486 109.404 1.65748C109.247 1.65748 109.111 1.69279 108.996 1.7634C108.881 1.83141 108.791 1.92164 108.726 2.0341C108.663 2.14395 108.631 2.26688 108.631 2.40288C108.631 2.57027 108.679 2.74027 108.773 2.91289C108.867 3.08551 108.992 3.26859 109.149 3.46213C109.306 3.65306 109.478 3.85968 109.663 4.08199L113.473 8.45239H111.731L108.553 4.9137C108.344 4.6757 108.134 4.42723 107.925 4.1683C107.719 3.90676 107.546 3.62952 107.407 3.33659C107.269 3.04105 107.199 2.72065 107.199 2.37542C107.199 1.98572 107.29 1.63525 107.47 1.32401C107.653 1.01277 107.91 0.766921 108.239 0.586456C108.569 0.403375 108.953 0.311834 109.393 0.311834C109.821 0.311834 110.192 0.399452 110.503 0.574686C110.817 0.747305 111.057 0.977464 111.225 1.26516C111.395 1.55025 111.48 1.8641 111.48 2.20672C111.48 2.58596 111.385 2.92989 111.197 3.23851C111.011 3.54452 110.75 3.81914 110.413 4.06238L108.773 5.24325C108.55 5.4054 108.386 5.57149 108.278 5.74149C108.174 5.90888 108.121 6.06973 108.121 6.22404C108.121 6.41496 108.168 6.58628 108.263 6.73797C108.357 6.88967 108.49 7.00998 108.663 7.0989C108.835 7.18521 109.038 7.22837 109.271 7.22837C109.553 7.22837 109.832 7.16429 110.107 7.03613C110.384 6.90536 110.635 6.72097 110.86 6.48297C111.087 6.24235 111.269 5.95726 111.405 5.62772C111.541 5.29817 111.609 4.93332 111.609 4.53316H112.994C112.994 5.02486 112.94 5.46818 112.833 5.86311C112.726 6.25542 112.577 6.59805 112.386 6.89097C112.195 7.18129 111.977 7.41929 111.731 7.60499C111.652 7.65468 111.576 7.70176 111.503 7.74622C111.43 7.79069 111.354 7.83776 111.276 7.88746C110.977 8.12808 110.644 8.302 110.275 8.40924C109.909 8.51647 109.547 8.57009 109.189 8.57009ZM75.5457 13.4178V21.4524H74.0784L70.5829 16.3954H70.524V21.4524H68.8253V13.4178H70.3161L73.7842 18.4708H73.8548V13.4178H75.5457ZM79.1116 21.5701C78.4917 21.5701 77.9582 21.4445 77.511 21.1935C77.0663 20.9398 76.7237 20.5815 76.4831 20.1185C76.2425 19.653 76.1222 19.1024 76.1222 18.4669C76.1222 17.847 76.2425 17.303 76.4831 16.8348C76.7237 16.3667 77.0624 16.0018 77.4992 15.7403C77.9386 15.4787 78.4538 15.348 79.0449 15.348C79.4425 15.348 79.8125 15.412 80.1552 15.5402C80.5004 15.6657 80.8012 15.8554 81.0575 16.109C81.3164 16.3627 81.5178 16.6818 81.6617 17.0663C81.8055 17.4482 81.8774 17.8954 81.8774 18.408V18.867H76.7891V17.8313H80.3042C80.3042 17.5907 80.2519 17.3775 80.1473 17.1918C80.0427 17.0061 79.8975 16.861 79.7118 16.7564C79.5288 16.6491 79.3156 16.5955 79.0724 16.5955C78.8187 16.5955 78.5937 16.6544 78.3976 16.7721C78.204 16.8871 78.0524 17.0428 77.9425 17.2389C77.8327 17.4325 77.7764 17.6482 77.7738 17.8862V18.871C77.7738 19.1691 77.8287 19.4267 77.9386 19.6438C78.051 19.8609 78.2093 20.0283 78.4133 20.146C78.6173 20.2637 78.8592 20.3225 79.1391 20.3225C79.3248 20.3225 79.4948 20.2964 79.6491 20.2441C79.8034 20.1918 79.9355 20.1133 80.0453 20.0087C80.1552 19.9041 80.2389 19.7759 80.2964 19.6242L81.8421 19.7262C81.7637 20.0976 81.6028 20.4219 81.3596 20.6991C81.119 20.9738 80.8077 21.1882 80.4259 21.3425C80.0466 21.4942 79.6085 21.5701 79.1116 21.5701ZM85.1305 23.8377C84.5891 23.8377 84.1249 23.7631 83.7378 23.6141C83.3533 23.4676 83.0473 23.2675 82.8198 23.0138C82.5922 22.7601 82.4445 22.475 82.3765 22.1586L83.9222 21.9506C83.9693 22.0709 84.0438 22.1834 84.1458 22.288C84.2478 22.3926 84.3825 22.4763 84.5499 22.5391C84.7199 22.6045 84.9265 22.6372 85.1698 22.6372C85.5333 22.6372 85.8328 22.5483 86.0682 22.3704C86.3062 22.1952 86.4252 21.9009 86.4252 21.4877V20.3853H86.3545C86.2813 20.5527 86.1715 20.7109 86.025 20.86C85.8785 21.0091 85.6902 21.1307 85.4601 21.2248C85.2299 21.319 84.9553 21.3661 84.6362 21.3661C84.1837 21.3661 83.7718 21.2615 83.4004 21.0522C83.0316 20.8404 82.7374 20.5174 82.5177 20.0832C82.3006 19.6464 82.1921 19.0946 82.1921 18.4276C82.1921 17.745 82.3032 17.1748 82.5255 16.7171C82.7479 16.2594 83.0434 15.9168 83.4122 15.6893C83.7836 15.4617 84.1903 15.348 84.6323 15.348C84.9697 15.348 85.2521 15.4055 85.4797 15.5206C85.7072 15.633 85.8903 15.7743 86.0289 15.9443C86.1702 16.1117 86.2787 16.2764 86.3545 16.4386H86.4173V15.4264H88.0768V21.5112C88.0768 22.0239 87.9513 22.4528 87.7002 22.798C87.4491 23.1433 87.1013 23.4022 86.6566 23.5748C86.2146 23.7501 85.7059 23.8377 85.1305 23.8377ZM85.1658 20.1107C85.4352 20.1107 85.6628 20.044 85.8485 19.9106C86.0368 19.7746 86.1806 19.581 86.28 19.33C86.382 19.0763 86.433 18.7729 86.433 18.4198C86.433 18.0667 86.3833 17.7607 86.2839 17.5018C86.1845 17.2402 86.0407 17.0375 85.8524 16.8937C85.6641 16.7498 85.4352 16.6779 85.1658 16.6779C84.8912 16.6779 84.6597 16.7524 84.4714 16.9015C84.2831 17.048 84.1406 17.252 84.0438 17.5135C83.947 17.7751 83.8986 18.0772 83.8986 18.4198C83.8986 18.7676 83.947 19.0684 84.0438 19.3221C84.1432 19.5732 84.2857 19.768 84.4714 19.9067C84.6597 20.0427 84.8912 20.1107 85.1658 20.1107ZM91.5771 21.5701C90.9677 21.5701 90.4406 21.4406 89.996 21.1817C89.554 20.9202 89.2127 20.5566 88.9721 20.0911C88.7315 19.6229 88.6111 19.0802 88.6111 18.4629C88.6111 17.8405 88.7315 17.2965 88.9721 16.8309C89.2127 16.3627 89.554 15.9992 89.996 15.7403C90.4406 15.4787 90.9677 15.348 91.5771 15.348C92.1865 15.348 92.7122 15.4787 93.1542 15.7403C93.5988 15.9992 93.9414 16.3627 94.182 16.8309C94.4227 17.2965 94.543 17.8405 94.543 18.4629C94.543 19.0802 94.4227 19.6229 94.182 20.0911C93.9414 20.5566 93.5988 20.9202 93.1542 21.1817C92.7122 21.4406 92.1865 21.5701 91.5771 21.5701ZM91.5849 20.2754C91.8621 20.2754 92.0936 20.197 92.2793 20.0401C92.465 19.8805 92.6049 19.6634 92.6991 19.3888C92.7959 19.1142 92.8442 18.8016 92.8442 18.4512C92.8442 18.1007 92.7959 17.7882 92.6991 17.5135C92.6049 17.2389 92.465 17.0218 92.2793 16.8623C92.0936 16.7028 91.8621 16.623 91.5849 16.623C91.305 16.623 91.0697 16.7028 90.8787 16.8623C90.6904 17.0218 90.5479 17.2389 90.4511 17.5135C90.357 17.7882 90.3099 18.1007 90.3099 18.4512C90.3099 18.8016 90.357 19.1142 90.4511 19.3888C90.5479 19.6634 90.6904 19.8805 90.8787 20.0401C91.0697 20.197 91.305 20.2754 91.5849 20.2754ZM90.9768 14.6496L91.8085 12.8646H93.3542L92.1577 14.6496H90.9768ZM97.8 21.5701C97.1827 21.5701 96.6518 21.4393 96.2072 21.1778C95.7652 20.9136 95.4252 20.5475 95.1871 20.0793C94.9518 19.6111 94.8341 19.0723 94.8341 18.4629C94.8341 17.8457 94.9531 17.3043 95.1911 16.8388C95.4317 16.3706 95.773 16.0057 96.215 15.7442C96.657 15.48 97.1827 15.348 97.7921 15.348C98.3178 15.348 98.7781 15.4434 99.1731 15.6343C99.568 15.8253 99.8806 16.0934 100.111 16.4386C100.341 16.7838 100.468 17.1892 100.491 17.6548H98.9142C98.8697 17.354 98.752 17.1121 98.5611 16.929C98.3728 16.7433 98.1256 16.6504 97.8196 16.6504C97.5607 16.6504 97.3344 16.7211 97.1409 16.8623C96.95 17.0009 96.8009 17.2036 96.6936 17.4704C96.5864 17.7372 96.5328 18.0602 96.5328 18.4394C96.5328 18.8239 96.5851 19.1508 96.6897 19.4202C96.797 19.6896 96.9473 19.8949 97.1409 20.0361C97.3344 20.1774 97.5607 20.248 97.8196 20.248C98.0105 20.248 98.1818 20.2088 98.3335 20.1303C98.4878 20.0518 98.6147 19.9381 98.7141 19.789C98.8161 19.6373 98.8828 19.4555 98.9142 19.2437H100.491C100.465 19.704 100.34 20.1094 100.115 20.4598C99.8923 20.8077 99.585 21.0797 99.1927 21.2759C98.8004 21.472 98.3361 21.5701 97.8 21.5701ZM101.009 21.4524V15.4264H102.68V21.4524H101.009ZM101.848 14.6496C101.6 14.6496 101.387 14.5672 101.209 14.4025C101.034 14.2351 100.946 14.035 100.946 13.8022C100.946 13.5721 101.034 13.3746 101.209 13.2098C101.387 13.0424 101.6 12.9587 101.848 12.9587C102.097 12.9587 102.309 13.0424 102.484 13.2098C102.662 13.3746 102.751 13.5721 102.751 13.8022C102.751 14.035 102.662 14.2351 102.484 14.4025C102.309 14.5672 102.097 14.6496 101.848 14.6496ZM106.189 21.5701C105.58 21.5701 105.053 21.4406 104.608 21.1817C104.166 20.9202 103.825 20.5566 103.584 20.0911C103.344 19.6229 103.223 19.0802 103.223 18.4629C103.223 17.8405 103.344 17.2965 103.584 16.8309C103.825 16.3627 104.166 15.9992 104.608 15.7403C105.053 15.4787 105.58 15.348 106.189 15.348C106.799 15.348 107.324 15.4787 107.766 15.7403C108.211 15.9992 108.554 16.3627 108.794 16.8309C109.035 17.2965 109.155 17.8405 109.155 18.4629C109.155 19.0802 109.035 19.6229 108.794 20.0911C108.554 20.5566 108.211 20.9202 107.766 21.1817C107.324 21.4406 106.799 21.5701 106.189 21.5701ZM106.197 20.2754C106.474 20.2754 106.706 20.197 106.892 20.0401C107.077 19.8805 107.217 19.6634 107.311 19.3888C107.408 19.1142 107.456 18.8016 107.456 18.4512C107.456 18.1007 107.408 17.7882 107.311 17.5135C107.217 17.2389 107.077 17.0218 106.892 16.8623C106.706 16.7028 106.474 16.623 106.197 16.623C105.917 16.623 105.682 16.7028 105.491 16.8623C105.303 17.0218 105.16 17.2389 105.063 17.5135C104.969 17.7882 104.922 18.1007 104.922 18.4512C104.922 18.8016 104.969 19.1142 105.063 19.3888C105.16 19.6634 105.303 19.8805 105.491 20.0401C105.682 20.197 105.917 20.2754 106.197 20.2754ZM114.703 17.1448L113.173 17.2389C113.147 17.1081 113.091 16.9905 113.005 16.8858C112.918 16.7786 112.804 16.6936 112.663 16.6308C112.525 16.5654 112.359 16.5327 112.165 16.5327C111.906 16.5327 111.688 16.5877 111.51 16.6975C111.332 16.8048 111.243 16.9486 111.243 17.1291C111.243 17.2729 111.301 17.3945 111.416 17.4939C111.531 17.5933 111.728 17.6731 112.008 17.7332L113.099 17.9529C113.685 18.0732 114.121 18.2668 114.409 18.5336C114.697 18.8003 114.841 19.1508 114.841 19.585C114.841 19.9799 114.724 20.3264 114.491 20.6246C114.261 20.9228 113.945 21.1555 113.542 21.3229C113.142 21.4877 112.68 21.5701 112.157 21.5701C111.359 21.5701 110.724 21.404 110.251 21.0718C109.78 20.7371 109.504 20.282 109.423 19.7066L111.067 19.6203C111.116 19.8635 111.237 20.0492 111.427 20.1774C111.618 20.3029 111.863 20.3657 112.161 20.3657C112.454 20.3657 112.689 20.3094 112.867 20.197C113.048 20.0819 113.139 19.9341 113.142 19.7537C113.139 19.602 113.075 19.4777 112.95 19.381C112.824 19.2816 112.631 19.2057 112.369 19.1534L111.325 18.9455C110.737 18.8278 110.299 18.6238 110.011 18.3335C109.726 18.0432 109.584 17.6731 109.584 17.2232C109.584 16.8361 109.688 16.5027 109.897 16.2228C110.109 15.943 110.406 15.7272 110.788 15.5755C111.172 15.4238 111.622 15.348 112.138 15.348C112.899 15.348 113.498 15.5088 113.934 15.8305C114.374 16.1522 114.63 16.5903 114.703 17.1448Z" fill="#E9A422"/>
</svg>
