<svg width="24" height="24" viewBox="0 0 24 24" fill="none" xmlns="http://www.w3.org/2000/svg">
<g clip-path="url(#clip0_116_4296)">
<path fill-rule="evenodd" clip-rule="evenodd" d="M20.0191 3.93688C10.6147 -5.19512 -4.13879 6.10192 2.25313 17.5528C2.25289 17.5528 0.651611 23.3999 0.651611 23.3999L6.63553 21.8308C18.084 27.8836 29.0441 13.2148 20.0191 3.93688ZM12.0343 21.2987C10.212 21.3052 8.44057 20.758 6.91273 19.7879L3.36169 20.7189L4.30969 17.2578C3.24457 15.6794 2.64385 13.828 2.65201 11.9118C2.63521 3.62008 12.834 -0.607522 18.6711 5.28424C24.5549 11.1258 20.3285 21.317 12.0343 21.2987Z" fill="white"/>
<path fill-rule="evenodd" clip-rule="evenodd" d="M17.1803 14.2741C16.8983 14.133 15.5116 13.4507 15.2531 13.3566C14.9946 13.2625 14.8065 13.2155 14.6185 13.498C14.4304 13.7802 13.8904 14.4153 13.7257 14.6032C13.5613 14.7916 13.3967 14.8151 13.1147 14.674C12.8327 14.5326 11.9243 14.235 10.8467 13.2743C10.0084 12.5267 9.44221 11.6037 9.27757 11.3212C9.11317 11.0392 9.26005 10.8863 9.40141 10.7457C9.64693 10.4761 9.95773 10.1373 10.1063 9.78133C10.2004 9.59293 10.1533 9.42829 10.0828 9.28717C10.0122 9.14605 9.46405 7.75117 9.21325 7.19365C9.00205 6.72397 8.77957 6.71461 8.57869 6.70621C8.10277 6.71365 7.73437 6.59005 7.28605 7.05253C5.60509 8.67037 6.37597 10.9439 7.45045 12.3217C7.59133 12.5099 9.40165 15.4485 12.2685 16.5789C14.6509 17.5185 15.1357 17.3315 15.6529 17.2845C16.1701 17.2374 17.3217 16.6024 17.5566 15.9438C17.7916 15.2853 17.7916 14.7208 17.7213 14.6029C17.6505 14.4858 17.4623 14.4153 17.1803 14.2741Z" fill="white"/>
</g>
<defs>
<clipPath id="clip0_116_4296">
<rect width="24" height="24" fill="white"/>
</clipPath>
</defs>
</svg>
